<svg width="132" height="142" viewBox="0 0 132 142" fill="none" xmlns="http://www.w3.org/2000/svg">
<path fill-rule="evenodd" clip-rule="evenodd" d="M85.3888 0.121676C85.0576 0.453662 85.3166 0.938812 86.0003 1.26722C86.4095 1.46394 87.6957 1.96719 88.859 2.3861C93.721 4.13634 94.9965 5.32107 95.3353 8.40123C95.4613 9.54538 95.5073 9.63629 95.9611 9.63629C97.144 9.63629 97.261 7.199 96.1794 5.0957C95.8425 4.44048 95.59 3.89625 95.6181 3.88611C96.5722 3.54537 96.7445 2.9178 96.1858 1.8196C95.4277 0.329342 94.181 -0.343779 93.1771 0.194877C92.592 0.508961 92.6999 0.764763 93.8844 1.87032C95.6709 3.53781 95.3008 3.71663 92.9026 2.34493C90.5654 1.00803 89.2654 0.499015 87.4206 0.198855C85.9269 -0.044217 85.5677 -0.0577432 85.3888 0.121676ZM76.4303 5.6628C72.4979 6.3039 68.9149 7.62508 67.0132 9.13562L66.2765 9.72082L65.2126 9.31544C62.635 8.33301 60.1089 8.67375 54.0176 10.8256C47.1065 13.267 46.5916 13.685 40.5065 21.7919C37.7069 25.5217 36.5265 27.4501 35.541 29.9043L34.8934 31.5167L33.1789 31.6633C27.9242 32.1129 25.1115 33.6445 22.1542 37.6667C16.9723 44.7146 15.5018 55.584 17.1451 74.6908C17.3194 76.7185 17.4117 78.5796 17.3498 78.8268C17.2879 79.0739 16.5695 79.961 15.7535 80.7982C13.54 83.069 13.5555 83.0255 13.5569 87.0135C13.5583 90.7085 13.6263 91.0383 15.164 94.796C15.5278 95.6849 16.1825 97.6368 16.6191 99.1338C18.7602 106.477 20.8614 109.937 27.4262 116.931C31.5727 121.347 35.0806 124.074 39.101 126.006C41.613 127.213 45.013 128.241 47.0756 128.418C49.3793 128.614 51.8586 127.774 55.2977 125.629C56.1109 125.122 56.8614 124.708 56.9655 124.708C57.0697 124.708 57.6419 125.076 58.2369 125.527C59.6259 126.578 62.0725 127.725 64.3207 128.379C66.1786 128.919 76.6114 130.899 79.4994 131.26C82.9248 131.689 85.2851 131.499 89.5209 130.455C92.5294 129.713 94.4689 128.802 95.875 127.468C97.9548 125.495 98.7155 123.536 98.8854 119.713L98.9969 117.205L101.3 117.092C105.158 116.903 107.952 115.867 113.719 112.485C118.251 109.826 120.377 108.347 122.045 106.691C124.054 104.696 126.527 101.346 127.541 99.2466C128.238 97.8053 128.371 97.321 128.446 95.9646C128.592 93.3178 127.595 91.3478 125.543 90.2277C124.029 89.4016 122.522 89.3457 118.76 89.9763C115.084 90.5925 111.911 90.651 107.641 90.1812C106.075 90.0089 103.623 89.844 102.193 89.8148C99.7236 89.7642 99.558 89.735 98.9015 89.2327C97.6087 88.2438 95.633 87.7496 90.8101 87.2084C89.3374 87.0431 87.9849 86.8613 87.8044 86.8042C87.5787 86.7328 87.4072 86.3014 87.254 85.4196C86.8986 83.3724 86.2814 81.5686 85.315 79.7531C83.9822 77.249 83.2989 76.3814 79.988 72.9901C78.1582 71.1161 76.6048 69.3219 76.0266 68.4151C74.6876 66.3152 72.6106 61.9536 71.7789 59.496C70.9679 57.0993 70.7476 56.8682 68.7177 56.2872C67.9668 56.0721 67.3186 55.8625 67.2772 55.8211C67.2359 55.7795 67.3327 55.4322 67.4924 55.0491C68.0628 53.68 68.6243 50.2211 68.7294 47.4298C68.8536 44.1336 68.4666 41.0896 67.7139 39.4408L67.2274 38.3752L67.7629 38.0369C70.696 36.1842 75.1456 32.2076 77.617 29.2304C80.5945 25.6436 81.1748 24.2858 80.6363 22.1658L80.3545 21.0559L81.0505 20.4806C81.7229 19.9249 82.4956 19.4761 86.7477 17.1715C89.6397 15.6041 90.8345 14.5978 91.5805 13.1008C92.0874 12.0831 92.1985 11.6212 92.1985 10.5296C92.1985 9.40177 92.1138 9.07217 91.6424 8.36841C90.771 7.06732 89.6819 6.44353 87.24 5.84659C85.3729 5.39029 78.7896 5.2783 76.4303 5.6628ZM41.4278 9.99274C38.4939 12.2216 37.14 13.7186 37.4806 14.3569C37.8219 14.9966 38.5546 14.6127 41.2584 12.3779C41.9488 11.8072 43.0038 10.9521 43.603 10.4777C44.202 10.0033 44.8268 9.36855 44.9914 9.06739C45.2675 8.56196 45.2609 8.49771 44.9055 8.23275C44.6937 8.07482 44.4259 7.9493 44.3105 7.95388C44.1948 7.95845 42.8977 8.87604 41.4278 9.99274ZM86.4105 9.13005C88.5748 9.66433 88.8267 9.81213 88.8267 10.5483C88.8267 11.853 87.6315 13.1222 85.2994 14.2938C83.8251 15.0346 81.9984 16.1386 79.7716 17.6346C78.3748 18.5729 78.097 18.6906 77.736 18.4969C76.9464 18.073 69.7636 11.8932 69.6244 11.5178C69.5355 11.2785 70.9142 10.4047 71.965 10.0341C73.357 9.543 75.7581 8.96157 77.2504 8.75391C79.4479 8.44818 84.4858 8.65505 86.4105 9.13005ZM47.0359 10.1208C44.1548 11.8585 38.604 16.2515 37.1779 17.9222C36.3857 18.8505 35.7591 20.3004 35.943 20.7806C36.0279 21.0028 36.2604 21.0804 36.7108 21.0368C37.2489 20.9847 37.3889 20.8645 37.5496 20.3173C37.6924 19.83 38.4616 19.03 40.5247 17.2218C43.9953 14.1803 46.1287 12.4811 47.3328 11.7993C49.8879 10.3526 50.2879 9.84514 49.248 9.36994C48.9701 9.24284 48.7248 9.1392 48.7026 9.1394C48.6804 9.1396 47.9304 9.58119 47.0359 10.1208ZM77.0271 10.2479C75.1635 10.6189 73.2415 11.5819 72.8502 12.3407C72.6832 12.6649 72.6039 13.0232 72.6741 13.1372C72.8651 13.4471 74.2317 13.1588 75.9344 12.4499C77.3581 11.857 77.5456 11.8297 80.298 11.8162C83.5222 11.8001 83.6565 11.7901 84.0508 11.5399C84.5524 11.2214 83.8259 10.4192 82.8016 10.1604C81.6167 9.86126 78.7521 9.90462 77.0271 10.2479ZM86.0598 10.42C85.4644 11.1393 86.248 12.4694 86.992 12.0022C87.716 11.5474 87.4534 10.1336 86.6449 10.1336C86.4535 10.1336 86.1901 10.2625 86.0598 10.42ZM63.9767 12.1893C65.3606 12.5494 66.9164 13.53 68.756 15.2019C69.6012 15.9699 70.6321 16.8692 71.0471 17.2002C71.7367 17.7503 71.7817 17.8448 71.5739 18.3025C71.368 18.7557 71.4921 19.0489 72.878 21.3807C75.4961 25.7862 75.8073 26.789 74.8525 27.7463C74.2562 28.3445 73.948 28.3653 73.8052 27.8177C73.3919 26.233 69.8774 20.5994 68.3403 19.058C67.7099 18.4259 66.8166 18.2999 66.414 18.7863C66.1341 19.1244 66.0984 19.0642 67.7163 20.9743C70.0559 23.7364 72.5507 27.9914 72.5999 29.3036C72.632 30.1615 72.3049 30.5707 70.7252 31.6496C69.9391 32.1865 69.5565 32.3498 69.5002 32.1723C69.4554 32.0305 69.136 30.9747 68.7909 29.826C68.0995 27.5247 66.2051 23.3688 65.2219 21.9958C64.5293 21.0286 63.4724 20.3452 62.969 20.5391C62.464 20.7332 62.5663 21.0603 63.7609 23.0731C66.0538 26.9362 67.4821 30.4503 67.8813 33.2113C68.0045 34.0628 67.9791 34.129 67.3972 34.4738C67.0596 34.6739 66.7351 34.7894 66.6764 34.7304C66.6177 34.6715 66.3069 33.8349 65.9856 32.8711C65.2924 30.7911 63.2585 26.5622 61.9174 24.4116C61.3906 23.5672 60.6642 22.3814 60.3032 21.7769C59.634 20.6559 58.8774 20.1982 58.4321 20.6447C58.0731 21.0048 58.6314 22.3202 60.3411 25.1422C61.2061 26.5696 62.2944 28.5487 62.7597 29.5405C63.6874 31.5171 65.0256 35.2175 65.0256 35.8057C65.0256 36.2904 64.4444 36.589 63.5015 36.5888L62.7446 36.5886L62.0848 34.6494C61.0472 31.5999 59.3982 28.2987 56.4217 23.3116C56.0506 22.69 55.7904 22.4662 55.4379 22.4662C54.304 22.4662 54.3631 23.4224 55.6176 25.3781C57.9509 29.0152 60.5085 34.3093 60.5434 35.574C60.5702 36.546 60.0912 36.5906 59.1162 35.7072C58.5765 35.2183 58.1986 34.6168 57.89 33.7559C56.8955 30.9814 55.6944 28.7904 54.5245 27.6172C53.3553 26.4446 52.1468 25.8893 51.3302 26.1493C50.4922 26.416 51.0539 27.5574 52.3007 28.1213C53.5822 28.7007 55.2273 31.1827 56.3013 34.1571C56.549 34.8435 56.7047 35.4524 56.647 35.5101C56.5893 35.568 54.8139 35.156 52.7014 34.5947C45.1866 32.5974 44.6018 32.4649 39.0808 31.5086L38.4245 31.3948L39.5564 29.2678C41.8354 24.9846 44.565 21.1329 47.4336 18.1524C48.8956 16.6333 49.4654 16.1927 50.8116 15.5408C51.7021 15.1096 52.9217 14.6 53.5217 14.4082C54.1217 14.2165 55.5448 13.707 56.6841 13.276C60.3792 11.8784 61.9066 11.6509 63.9767 12.1893ZM60.067 15.5016C59.6396 15.7749 60.0595 16.3818 60.7317 16.4622C61.1994 16.5183 61.2571 16.4582 61.2571 15.9152C61.2571 15.4145 61.1771 15.3059 60.8108 15.3083C60.5653 15.3101 60.2306 15.397 60.067 15.5016ZM53.5808 17.9109C50.4942 19.5382 47.8604 21.7658 44.895 25.2567C42.4913 28.0863 42.0974 29.0802 43.1149 29.7488C43.391 29.9304 43.6458 30.0442 43.6809 30.002C43.716 29.9598 44.082 29.3884 44.4941 28.7319C47.57 23.8321 51.6188 20.3336 56 18.7903C57.2569 18.3475 57.533 17.9642 56.9885 17.418C56.4254 16.8535 55.2695 17.0205 53.5808 17.9109ZM76.0001 21.4489C77.2518 22.6178 77.6233 23.4426 77.3173 24.373C77.1943 24.7465 77.0174 25.052 76.9241 25.052C76.7938 25.052 74.5587 21.1156 74.1759 20.2119C74.0303 19.8682 75.0423 20.5544 76.0001 21.4489ZM76.9154 33.371C75.8517 34.0483 75.2248 34.8439 74.2937 36.698C71.9085 41.4481 71.3666 49.9003 73.3857 50.862C74.0498 51.1783 74.546 50.9955 74.546 50.435C74.546 50.1968 74.3576 49.4678 74.1273 48.8152C73.3486 46.6085 73.8358 41.7315 75.1397 38.681C75.7541 37.243 77.1019 35.2959 77.7469 34.9138C78.064 34.7258 78.4673 34.3522 78.6428 34.0835C78.9387 33.6306 78.9361 33.5665 78.6075 33.2023C78.142 32.6865 77.9625 32.7044 76.9154 33.371ZM39.9503 34.8157C42.0369 35.0238 44.9436 35.7015 50.8441 37.356C55.5099 38.6645 59.7128 39.5695 61.9257 39.7428C64.3312 39.9311 64.6301 40.0966 65.1085 41.5049C66.0693 44.3329 66.002 48.3279 64.9298 52.1042C64.5416 53.4718 64.1687 55.1442 64.1015 55.8211L63.9789 57.0514L63.1996 57.1835C62.771 57.2561 62.3932 57.2841 62.3599 57.2459C62.3265 57.2077 62.463 55.9234 62.6629 54.3917C63.2256 50.0811 63.1689 49.1205 62.3509 49.1205C61.6304 49.1205 61.4322 49.5764 61.2523 51.6477C61.0399 54.093 60.6807 57.0673 60.5422 57.5246C60.4835 57.7186 60.2233 57.8858 59.9546 57.9025C59.6892 57.9191 59.3621 57.9413 59.228 57.9523C58.9624 57.974 58.9601 58.1138 59.3044 53.4966C59.6509 48.8508 59.6439 48.6336 59.1441 48.5622C58.6447 48.4908 58.1639 49.0843 57.8858 50.1157C57.7825 50.499 57.6103 52.334 57.5034 54.1934C57.2787 58.0969 57.099 58.8368 56.385 58.7957C55.3248 58.7346 55.2826 57.1176 56.1975 51.6069C56.7872 48.0561 56.8045 47.5099 56.3463 46.9424C55.5849 45.9992 54.9883 46.9215 54.6894 49.5036C54.5809 50.4417 54.3185 52.5323 54.106 54.1495C53.8938 55.7668 53.7201 57.6688 53.7201 58.3764C53.7201 59.2804 53.6455 59.6629 53.4693 59.6629C53.3317 59.6629 51.6753 60.1552 49.7889 60.7569C47.9025 61.3587 46.2749 61.851 46.1719 61.851C45.823 61.851 45.9809 57.5978 46.493 53.1937C47.2043 47.0775 47.2713 45.9172 46.9387 45.4776C46.6765 45.1313 46.6442 45.1337 46.1336 45.5363C45.4617 46.0666 45.1939 47.0288 45.1921 48.9216C45.1913 49.7421 45.0049 51.8456 44.778 53.5961C44.4797 55.8977 44.3843 57.5546 44.4333 59.5822L44.5009 62.3855L43.453 62.8145C41.348 63.6762 40.6384 63.2638 41.0085 61.3939C41.1211 60.8248 41.3514 58.7479 41.5202 56.7787C41.906 52.2799 42.3447 48.9212 42.7194 47.5981C43.2964 45.5598 42.927 44.7355 41.8455 45.6481C41.095 46.2814 40.9123 46.9452 40.6435 50.0156C40.5287 51.3285 40.249 53.5662 40.0221 54.9885C39.7952 56.4107 39.5594 59.059 39.4979 60.8737L39.3864 64.1733L37.7112 64.7203C36.7901 65.0212 36.016 65.2371 35.9912 65.2003C35.9666 65.1633 36.0037 62.6715 36.0739 59.6629C36.1649 55.7563 36.3052 53.5959 36.5646 52.1042C36.923 50.0425 36.8728 48.5238 36.4462 48.5238C36.0184 48.5238 35.2875 49.5229 34.9723 50.5388C34.7038 51.4047 34.6131 52.9321 34.4939 58.6041C34.3725 64.3851 34.294 65.6824 34.0423 66.0679C33.7442 66.524 31.7607 67.7426 31.592 67.5733C31.2986 67.2791 32.2693 58.3871 33.2198 52.6618C33.6139 50.2882 33.8808 48.2008 33.8128 48.0231C33.7372 47.8258 33.5153 47.725 33.242 47.7639C32.6648 47.8461 31.9968 49.174 31.6041 51.0205C31.1592 53.1127 30.1032 62.7548 29.9527 66.0994L29.8198 69.055L27.5483 70.2268C25.1298 71.4746 24.674 71.613 24.835 71.0507C24.8898 70.8593 24.9897 68.7781 25.057 66.426C25.3218 57.161 25.961 51.9318 27.0676 49.9802C27.3268 49.5231 27.5388 48.9668 27.5388 48.744C27.5388 48.2463 26.874 47.8592 26.3214 48.0353C24.8414 48.5063 23.4885 57.121 23.2459 67.6194C23.113 73.3692 23.1239 73.3265 21.4872 74.4935C20.9602 74.8692 20.4998 75.1471 20.4639 75.1111C20.3041 74.9508 19.6069 61.4211 19.6061 58.4619C19.6051 55.083 19.9334 51.6292 20.4802 49.2647C20.9293 47.3228 22.9147 42.2837 23.8554 40.6984C24.2995 39.95 25.3951 38.5931 26.2903 37.6826C28.3096 35.6289 29.2872 35.2109 33.1916 34.7323C34.513 34.5704 37.909 34.6124 39.9503 34.8157ZM33.9627 36.4002C31.6511 36.7028 31.204 36.916 29.1194 38.7122C27.2209 40.3477 26.7601 40.9935 27.0154 41.6609C27.2762 42.3428 28.118 41.9718 29.7688 40.4471C31.6534 38.7068 32.0214 38.487 33.7271 38.0838C36.2098 37.4968 39.8672 37.866 43.3475 39.0547C44.1334 39.3231 45.4982 39.6905 46.3802 39.8709C47.2624 40.0513 48.3854 40.3769 48.8759 40.5945C50.0261 41.1047 50.8209 41.0295 50.9095 40.4018C51.0609 39.3304 49.8145 38.7337 44.8591 37.5054C40.1243 36.3318 36.9476 36.0098 33.9627 36.4002ZM54.7514 41.0049C54.1536 41.6044 54.9652 42.5528 55.8009 42.2312C56.4342 41.9875 56.0222 40.7662 55.3068 40.7662C55.1323 40.7662 54.8823 40.8736 54.7514 41.0049ZM14.0831 42.5445C12.9228 44.1507 11.794 48.8086 11.0861 54.9115C10.5321 59.6876 10.5444 60.5399 11.1772 61.1745C11.4509 61.449 11.7609 61.62 11.866 61.555C12.2333 61.3272 12.4787 59.8497 12.6665 56.7343C12.9253 52.4458 13.9153 47.2338 15.1379 43.7244C15.6151 42.3549 15.626 42.2437 15.3078 42.0104C14.805 41.6416 14.7029 41.6862 14.0831 42.5445ZM59.5117 41.9994C59.0416 42.4709 59.2621 42.9628 60.1886 43.5088C61.547 44.3094 62.5874 45.2809 62.7401 45.891C62.8692 46.407 63.1556 46.724 63.4985 46.7306C63.7812 46.736 64.2538 45.3253 64.1188 44.8791C63.8448 43.9731 63.0066 43.1629 61.6278 42.4711C60.0767 41.6929 59.8645 41.6456 59.5117 41.9994ZM50.3774 46.2011C49.7887 46.9126 49.3125 50.9637 49.0132 57.8097C48.9416 59.4455 48.9755 59.6786 49.3387 60.0429C49.8218 60.5274 50.3044 60.4011 50.5618 59.7224C50.6624 59.4567 50.7477 58.1934 50.7511 56.9149C50.7544 55.6365 50.8371 53.9641 50.9349 53.1982C51.0327 52.4324 51.2154 50.5623 51.3409 49.0424C51.5284 46.7728 51.522 46.249 51.3058 46.1114C50.9272 45.8707 50.6267 45.8997 50.3774 46.2011ZM28.1313 51.0168C27.5688 52.5007 26.7542 58.0424 26.4364 62.5472C26.3668 63.5318 26.1869 65.1352 26.0362 66.1105C25.8856 67.0858 25.8172 68.1151 25.8839 68.398C26.0439 69.0755 26.5211 69.6086 26.9676 69.6086C27.5599 69.6086 27.681 69.0556 27.7959 65.8292C27.9113 62.5901 28.4609 58.0295 29.1268 54.7836C29.5671 52.6375 29.624 51.4733 29.317 50.8976C29.0218 50.3448 28.361 50.4113 28.1313 51.0168ZM68.2393 59.8121C68.6394 60.276 69.0363 61.4911 68.8463 61.6704C68.7629 61.7489 66.776 62.8002 64.4305 64.0064C57.749 67.4424 52.4858 69.6165 48.9212 70.413C45.8683 71.0949 44.7441 71.7542 45.1949 72.5988C45.3843 72.9539 45.5503 73.011 46.1507 72.9268C47.0645 72.7988 54.8193 70.1773 57.9844 68.9265C60.9635 67.7491 65.8144 65.3709 67.9015 64.0645C69.3814 63.1381 69.5097 63.0938 69.8072 63.4059C70.1109 63.7247 70.858 65.4304 70.7363 65.5269C70.293 65.8784 65.0535 68.8185 62.1496 70.3452C56.6617 73.2306 49.5301 76.5618 47.6706 77.1086C46.2973 77.5122 45.7863 77.879 45.7863 78.461C45.7863 79.5493 47.0077 79.3384 51.2255 77.5227C57.2386 74.9339 65.048 70.9045 69.7806 67.9486C70.596 67.4394 71.3247 67.0227 71.3999 67.0227C71.5614 67.0227 72.9593 69.4845 72.9593 69.7685C72.9593 70.0613 69.9895 72.4355 67.827 73.8717C63.6344 76.6561 56.1987 80.6685 53.125 81.8053C52.0887 82.1886 50.4633 82.6561 49.5128 82.8443C47.6228 83.2182 46.9201 83.6779 47.3023 84.2902C48.1744 85.6865 54.3791 83.5339 62.3065 79.0846C67.5144 76.1618 70.0567 74.5448 72.4033 72.6629C73.1338 72.0771 73.8572 71.5977 74.0109 71.5977C74.3138 71.5977 76.3311 73.6425 76.3311 73.9497C76.3311 74.2962 70.6 78.2826 66.6514 80.6823C63.97 82.312 57.7573 85.4138 55.1326 86.4334C54.0299 86.8619 53.1268 87.3043 53.1262 87.4167C53.1256 87.5293 53.271 87.8302 53.4495 88.0858C53.7169 88.4687 53.9001 88.5328 54.4908 88.4498C55.7558 88.2724 62.7127 84.9641 66.7115 82.6384C68.7165 81.4724 73.3157 78.389 75.3791 76.8273L77.5013 75.2211L78.2596 75.7803C78.6765 76.0878 79.3082 76.7454 79.6637 77.2415L80.3095 78.1435L78.972 79.2499C76.1756 81.5631 72.3716 84.0729 66.2694 87.6307C64.7172 88.5358 63.0469 89.5524 62.5576 89.89C61.1783 90.8416 59.804 91.4743 58.6461 91.6905C56.6543 92.0623 56.0912 92.51 56.3977 93.4781C56.5986 94.1131 57.7042 93.9788 59.7007 93.0773C61.524 92.2538 63.1189 91.3561 67.9015 88.4608C69.4288 87.536 71.6601 86.2101 72.8601 85.5139C76.0933 83.6383 78.3445 82.0856 79.7714 80.7469C80.4707 80.0909 81.1264 79.5542 81.229 79.5542C81.3313 79.5542 81.7451 80.1136 82.1481 80.797L82.8814 82.0398L82.3334 82.1932C82.0196 82.2811 81.4612 82.7703 81.0267 83.3382C79.2471 85.6631 71.9557 90.5909 65.6492 93.7304C61.3908 95.8502 60.8164 96.3041 61.5109 97.0005C61.9747 97.4658 62.8882 97.1495 66.4025 95.3072C69.0466 93.9209 70.8029 92.851 77.302 88.6672C79.4631 87.2762 81.965 85.0894 82.8219 83.8428L83.2239 83.258L83.5775 83.9423C84.3558 85.4488 84.3227 85.8262 83.2747 87.3821C81.7964 89.5769 80.7228 90.3693 75.8051 92.8969C72.3327 94.6816 71.0558 95.4689 69.7896 96.6061C69.0125 97.304 68.9345 97.4451 69.1692 97.7287C69.6507 98.3105 70.4314 98.0963 72.2754 96.876C73.2538 96.2283 75.3475 95.007 76.9281 94.1616C79.5847 92.741 81.2369 91.7126 82.4797 90.7059C82.7524 90.4851 83.0424 90.3023 83.1243 90.2999C83.6349 90.2848 82.7231 93.0387 81.6838 94.6515C81.2639 95.303 79.7317 97.122 78.2786 98.694C76.8258 100.266 74.4808 102.936 73.0676 104.626C69.6735 108.687 66.5159 112.239 65.1991 113.476C64.6128 114.027 63.0174 115.35 61.6538 116.415C60.2901 117.48 58.2819 119.119 57.191 120.058C55.0799 121.874 52.8783 123.411 51.2148 124.23C48.9664 125.337 45.9161 125.236 42.2277 123.933C37.2384 122.171 33.6999 119.331 27.5783 112.176C22.9456 106.762 21.3105 103.945 19.9794 99.0865C19.5391 97.4789 18.8175 95.2236 18.3762 94.0749C17.9347 92.9262 17.3537 91.4045 17.0848 90.6934C16.1561 88.2374 16.2896 85.0979 17.3831 83.6773C18.5535 82.1566 23.0868 77.2013 24.2868 76.1307C26.0703 74.54 27.0713 73.8862 29.389 72.798C30.4987 72.277 32.1205 71.3332 32.9933 70.7006C35.1389 69.1451 36.6433 68.4782 41.4228 66.9634C43.6591 66.2547 47.3104 65.0362 49.5366 64.2556C53.9563 62.7061 55.479 62.2886 61.193 61.0599C63.2849 60.61 65.4716 60.0777 66.0524 59.8768C67.4271 59.4016 67.874 59.3882 68.2393 59.8121ZM90.2548 67.8581C89.6143 68.5004 90.245 69.8723 92.1999 72.0896C93.5645 73.6374 93.7853 74.2144 93.7853 76.235C93.7853 77.5967 93.8515 77.9615 94.148 78.2305C94.3475 78.4115 94.6197 78.5597 94.7528 78.5597C95.086 78.5597 95.759 77.0095 95.7643 76.23C95.7713 75.2209 95.0168 73.4619 93.8719 71.8181C93.2922 70.9857 92.409 69.7005 91.9089 68.9621C90.9971 67.6151 90.6969 67.4148 90.2548 67.8581ZM82.1326 68.3479C81.4111 68.6399 82.4597 69.7472 84.4812 70.8277C87.2588 72.3124 88.8174 74.4595 89.2277 77.3662C89.3436 78.1867 89.5756 79.2376 89.7432 79.7012C90.0469 80.5416 90.8216 81.3445 91.329 81.3445C91.763 81.3445 91.855 80.4647 91.5081 79.6322C91.3308 79.2063 90.9759 77.8653 90.7195 76.6517C90.0231 73.3541 89.2359 71.9981 87.0299 70.2958C85.0734 68.7861 83.0444 67.9789 82.1326 68.3479ZM21.1954 81.6798C20.1268 83.9598 19.7805 88.7291 20.4687 91.6879C20.931 93.6757 22.5616 97.0164 24.4982 99.9428C25.367 101.256 26.4111 102.966 26.8186 103.745C27.6063 105.249 28.3243 105.832 28.8503 105.394C29.0016 105.269 29.1256 104.965 29.1256 104.72C29.1256 104.474 28.049 102.583 26.7332 100.517C24.0871 96.362 22.7798 93.84 22.2595 91.8868C21.8176 90.2281 21.817 86.5717 22.2582 83.7825C22.7013 80.9802 22.6896 80.7477 22.1062 80.7477C21.7361 80.7477 21.5366 80.9518 21.1954 81.6798ZM6.62499 86.3616C6.45521 86.6047 6.31617 87.1949 6.31617 87.6729C6.31617 89.807 7.74166 95.1804 9.8911 101.149C12.996 109.771 15.4354 114.871 19.067 120.331C19.831 121.48 20.6399 122.702 20.8644 123.048C21.3545 123.8 22.2828 124.39 22.7153 124.224C22.9557 124.131 23.0033 123.917 22.9206 123.299C22.8413 122.706 22.4503 122.017 21.4277 120.668C19.4401 118.045 18.4061 116.366 16.531 112.715C14.3586 108.485 12.6861 104.276 10.4905 97.5151C8.52373 91.4584 8.10998 89.8082 8.10463 88.0027C8.10106 86.7658 7.7371 85.9194 7.20871 85.9194C7.05738 85.9194 6.79477 86.1184 6.62499 86.3616ZM91.2383 90.4962C93.1299 90.7168 95.1463 91.0329 95.7191 91.1986L96.7604 91.5002V92.7193C96.7604 93.5084 96.4768 95.0185 95.9563 96.9997C95.342 99.3385 95.1128 100.66 94.9844 102.599C94.8158 105.151 94.9781 110.309 95.3611 114.563C95.7584 118.977 95.516 123.661 94.8843 123.777C94.7795 123.797 94.5911 123.32 94.4656 122.718C94.3398 122.117 93.9983 120.729 93.7063 119.635C93.4144 118.541 93.1285 117.064 93.071 116.353C92.8967 114.196 92.8693 114.132 92.1422 114.203C91.5051 114.265 91.5043 114.266 91.445 115.52C91.4081 116.298 91.5372 117.395 91.7846 118.404C92.0041 119.3 92.4006 121.107 92.6658 122.42C92.9308 123.733 93.2077 124.954 93.2809 125.133C93.3725 125.357 93.2331 125.587 92.8314 125.874L92.2489 126.29L92.1325 125.57C92.0684 125.174 91.8248 124.645 91.5912 124.396C90.9678 123.73 90.7941 121.846 90.6433 114.122C90.5285 108.23 90.4723 107.375 90.181 107.083C89.7545 106.656 89.2738 106.846 89.008 107.546C88.8071 108.076 88.7235 114.434 88.9136 114.742C88.9633 114.823 89.0972 116.986 89.2111 119.549C89.4245 124.355 89.5859 125.41 90.2518 126.349C90.7012 126.984 90.7341 126.961 88.7825 127.365C87.5317 127.623 87.4419 127.618 87.3344 127.278C87.2713 127.079 87.0539 126.863 86.8514 126.799C86.6489 126.734 86.4133 126.528 86.3276 126.341C86.2421 126.154 86.1483 121.391 86.1191 115.756L86.0662 105.512L85.628 105.155C85.2284 104.829 85.1623 104.825 84.8761 105.113C84.5986 105.391 84.5623 106.546 84.5623 115.117C84.5623 124.329 84.651 126.17 85.1794 127.94C85.2724 128.251 85.1143 128.288 83.6793 128.288C82.1156 128.288 82.0783 128.277 82.1858 127.84C82.2463 127.594 82.1592 126.945 81.992 126.398C81.8248 125.851 81.6308 124.679 81.561 123.792C81.4224 122.033 81.7466 115.811 82.1959 111.61C82.6582 107.285 82.5255 105.366 81.756 105.254C80.8628 105.123 80.5877 106.924 80.1926 115.491C79.8999 121.839 79.9588 124.822 80.4289 127.464C80.5441 128.112 80.5308 128.129 79.9764 128.021C79.6625 127.96 77.9176 127.669 76.0992 127.375C74.2808 127.08 72.6743 126.765 72.5291 126.675C72.1088 126.413 72.2016 117.787 72.6491 115.54C73.0735 113.408 73.0162 112.497 72.4525 112.416C71.5816 112.291 71.0849 113.462 70.7833 116.353C70.5548 118.543 70.5397 123.729 70.7577 125.264C70.84 125.844 70.8412 126.359 70.7607 126.409C70.6369 126.485 68.9371 126.189 67.2569 125.798C66.6809 125.664 66.671 124.937 67.2079 122.164C67.8639 118.776 67.6937 116.898 66.7635 117.256C66.1042 117.509 65.6825 119.185 65.4264 122.569C65.3273 123.879 65.1977 124.999 65.1386 125.058C65.0795 125.117 64.4657 125.012 63.7746 124.825C62.5332 124.488 61.0312 123.717 60.067 122.922L59.5712 122.514L60.7646 121.373C61.4209 120.745 62.9382 119.479 64.1364 118.56C66.8228 116.498 68.9052 114.395 72.3353 110.281C73.7919 108.533 76.771 105.199 78.9554 102.871C83.2794 98.2626 84.2029 97.1732 84.8101 95.9646C85.1946 95.1989 86.4466 91.4791 86.4466 91.1017C86.4466 91.0009 86.5372 90.6792 86.6479 90.387C86.8113 89.956 86.9387 89.8786 87.3241 89.9757C87.5851 90.0413 89.3465 90.2756 91.2383 90.4962ZM26.7518 92.3764C26.3857 92.819 26.8171 93.9167 28.0636 95.7139C28.6511 96.5607 29.7686 98.3957 30.5469 99.7916C32.6961 103.647 33.3737 104.645 34.701 105.915C35.3712 106.556 36.2058 107.489 36.5555 107.987C37.2332 108.954 37.925 109.183 38.311 108.569C38.6488 108.032 38.0988 107.066 36.466 105.327C34.6796 103.425 33.9505 102.368 31.5454 98.1978C29.6208 94.8608 27.6697 92.0858 27.2481 92.0858C27.1074 92.0858 26.8841 92.2166 26.7518 92.3764ZM89.6766 92.6632C89.1107 92.9282 88.7995 93.2194 88.713 93.5643C88.5085 94.3816 88.7406 94.7367 89.3739 94.576C90.4398 94.3054 92.114 94.0771 93.0415 94.0761C93.821 94.0751 93.9836 94.0122 93.9836 93.7117C93.9836 93.512 93.7575 93.1356 93.4814 92.8754C92.7795 92.2141 90.8637 92.1072 89.6766 92.6632ZM122.743 93.0149C122.743 93.0883 122.611 93.2946 122.45 93.473C122.276 93.6659 122 94.8853 121.771 96.4778C121.558 97.9519 121.195 99.6395 120.963 100.228C120.497 101.413 120.546 101.832 121.15 101.832C121.372 101.832 121.553 101.935 121.553 102.06C121.553 102.439 117.793 106.062 116.133 107.281C111.375 110.778 106.902 112.96 102.668 113.848C100.919 114.215 98.6333 113.906 98.4538 113.278C98.3902 113.055 98.2837 111.306 98.217 109.391C98.0411 104.33 98.5836 98.8778 99.6915 94.5722L100.05 93.1798L101.807 93.1219L103.564 93.064L103.446 94.7375C103.327 96.4296 102.529 100.374 102.005 101.867C101.688 102.765 101.632 104.171 101.895 104.588C102.159 105.006 102.838 104.542 103.304 103.627C103.521 103.199 103.874 101.792 104.087 100.501C104.3 99.2092 104.658 97.4447 104.882 96.5792C105.106 95.7139 105.289 94.5622 105.289 94.0202V93.0346L106.411 93.175C107.918 93.3638 108.097 93.4455 107.885 93.8461C107.789 94.0266 107.65 95.0695 107.574 96.1635C107.391 98.818 106.807 101.68 106.108 103.351C105.328 105.215 105.19 106.08 105.605 106.497C106.038 106.932 106.51 106.817 106.802 106.207C107.12 105.543 108.37 101.632 108.741 100.142C109.201 98.2924 109.435 95.8681 109.26 94.7711C109.172 94.2241 109.14 93.7347 109.188 93.6838C109.297 93.5687 111.859 93.6359 111.98 93.7572C112.264 94.0419 110.999 100.688 110.143 103.404C109.492 105.471 109.535 106.283 110.302 106.371C110.797 106.428 110.903 106.324 111.357 105.329C111.635 104.721 112.181 102.812 112.571 101.088C113.129 98.624 113.285 97.4966 113.301 95.8168L113.322 93.6796L114.492 93.6785L115.661 93.6771L115.536 95.1623C115.369 97.1389 114.933 99.2413 114.092 102.114L113.399 104.484L113.8 104.886C114.195 105.283 114.206 105.283 114.621 104.907C114.852 104.697 115.152 104.255 115.288 103.925C115.774 102.745 116.8 98.3093 117.153 95.8651L117.512 93.3787H118.175H118.838L118.797 95.0695C118.726 97.9714 118.404 100.41 117.949 101.47C117.631 102.211 117.572 102.56 117.722 102.8C118.28 103.688 119.31 102.901 119.835 101.187C120.46 99.1452 120.77 94.8495 120.369 93.7918C120.196 93.3351 120.231 93.2719 120.716 93.1647C121.013 93.0992 121.345 93.0157 121.454 92.9791C121.824 92.8554 122.743 92.8808 122.743 93.0149ZM124.713 93.8569C125.219 94.5692 125.27 96.322 124.816 97.413C124.372 98.4816 122.874 100.733 122.785 100.466C122.743 100.341 122.937 99.2769 123.215 98.1015C123.493 96.9261 123.781 95.3603 123.855 94.6219C123.928 93.8835 124.059 93.2792 124.146 93.2792C124.232 93.2792 124.488 93.5392 124.713 93.8569ZM3.36642 95.1383C2.89298 95.7104 3.82519 98.9411 5.81476 103.623C9.47537 112.237 10.2664 113.568 11.7242 113.568C12.2936 113.568 12.3137 113.539 12.2044 112.864C12.1419 112.477 11.7871 111.739 11.416 111.223C9.77904 108.95 7.4261 103.825 5.50574 98.3515C4.93015 96.7105 4.37499 95.256 4.27245 95.1192C4.02908 94.7948 3.6439 94.8029 3.36642 95.1383ZM128.297 103.542C126.7 106.224 123.094 110.868 120.568 113.495C117.892 116.278 115.212 117.877 112.486 118.318C111.171 118.53 110.661 118.738 110.257 119.226C110.054 119.471 110.052 119.597 110.243 119.829C110.869 120.585 112.817 120.33 115.742 119.109C119.915 117.366 123.552 113.756 128.26 106.682C129.343 105.054 130.375 103.436 130.552 103.086C131.093 102.021 130.927 101.035 130.209 101.04C129.877 101.042 129.459 101.589 128.297 103.542ZM0.259582 102.166C-0.420931 102.849 0.343878 105.031 1.31457 105.176C1.96295 105.273 2.25174 104.546 1.9568 103.558C1.47899 101.959 0.922046 101.502 0.259582 102.166ZM76.9509 107.074C76.5154 107.6 76.0917 110.749 75.7426 116.055C75.6345 117.696 75.4443 120.157 75.3198 121.525C75.0639 124.332 75.2291 125.41 76.0384 126.222C77.0725 127.259 77.7221 126.497 77.2352 124.817C76.7839 123.261 76.8454 119.868 77.4085 115.243C78.2794 108.089 78.2989 106.805 77.5364 106.805C77.3365 106.805 77.0731 106.926 76.9509 107.074ZM130.717 107.044C130.586 107.175 130.478 107.511 130.477 107.79C130.476 108.444 128.783 111.313 127.039 113.617C125.877 115.151 125.123 116.421 125.123 116.844C125.123 116.902 125.433 116.95 125.811 116.95C126.729 116.95 127.69 116.087 128.697 114.358C129.128 113.619 129.932 112.356 130.483 111.553C131.555 109.993 132.182 108.287 131.953 107.552C131.728 106.828 131.164 106.596 130.717 107.044ZM106.281 108.709C104.057 109.581 103.963 109.6 102.512 109.455C101.694 109.373 100.846 109.327 100.628 109.352C100.194 109.403 99.7355 109.908 99.7355 110.334C99.7355 110.83 101.138 111.236 102.909 111.253C104.781 111.271 106.346 110.844 108.672 109.678C110.111 108.958 110.548 108.553 110.375 108.101C110.162 107.544 108.695 107.762 106.281 108.709ZM30.0292 108.578C29.7488 109.033 30.6615 109.967 31.1132 109.687C31.2199 109.621 31.3073 109.303 31.3073 108.982C31.3073 108.467 31.2373 108.397 30.724 108.397C30.4031 108.397 30.0905 108.478 30.0292 108.578ZM35.1633 113.654C34.7857 113.933 34.7853 113.951 35.149 114.634C35.5896 115.461 36.3919 116.132 38.5974 117.517C41.1289 119.107 41.5674 119.24 44.1996 119.22C45.4541 119.211 46.8566 119.097 47.3162 118.966C48.3091 118.684 48.8376 118.061 48.5467 117.516C48.3041 117.061 47.6369 117.047 45.8691 117.458C43.286 118.059 40.946 117.295 37.6952 114.79C36.6814 114.009 35.7837 113.369 35.7002 113.369C35.6167 113.369 35.3751 113.497 35.1633 113.654ZM63.1719 131.966C62.4493 132.69 62.8492 133.282 64.2322 133.534C64.614 133.604 65.8136 134.197 66.8977 134.853C69.8826 136.658 71.5409 137.166 76.0336 137.651C80.5211 138.136 90.4134 137.027 90.4134 136.04C90.4134 135.967 90.2256 135.738 89.9961 135.529C89.4544 135.037 88.0438 135.042 85.2565 135.546C83.674 135.833 82.2451 135.922 79.3062 135.92C73.8842 135.916 72.3754 135.587 68.061 133.468C64.4795 131.709 63.6743 131.462 63.1719 131.966ZM74.1573 140.114C73.7604 140.593 74.0063 141.096 74.8435 141.516C75.5492 141.87 76.1107 141.92 79.9231 141.977C83.7305 142.033 84.2466 142.003 84.5435 141.705C84.9566 141.291 84.8723 140.994 84.2491 140.667C83.9062 140.488 82.8056 140.429 80.3971 140.461C77.6729 140.498 76.8184 140.441 75.9479 140.166C74.6367 139.751 74.4617 139.746 74.1573 140.114Z" fill="#D4B7AA"/>
</svg>
