<svg width="158" height="142" viewBox="0 0 158 142" fill="none" xmlns="http://www.w3.org/2000/svg">
<path fill-rule="evenodd" clip-rule="evenodd" d="M70.5966 0.0539773C66.3916 0.464769 64.1276 0.86836 63.3398 1.34739C62.7423 1.71069 62.611 1.937 62.7309 2.39752C62.857 2.88203 63.5497 2.93741 64.6217 2.5489C66.1165 2.00695 68.1848 1.78561 71.9172 1.7683C75.0201 1.75407 75.3409 1.72406 75.7633 1.4098C76.3971 0.938483 76.3758 0.773549 75.6341 0.412305C74.9882 0.0976962 72.1878 -0.101527 70.5966 0.0539773ZM49.9494 4.3006C48.0641 4.90942 46.1085 6.06807 43.5852 8.07128C43.1121 8.44692 41.4023 10.0721 39.7856 11.6829C38.1689 13.2934 36.2899 15.101 35.6103 15.6997C34.2875 16.8649 33.2671 18.1439 31.3042 21.0973C29.464 23.8659 28.9676 24.9851 27.8486 28.8876C27.2881 30.8426 26.7104 32.7759 26.565 33.1838C25.9054 35.034 25.2509 41.0142 25.586 42.1288C25.7553 42.6923 25.8692 42.8148 26.2242 42.8148C26.8884 42.8148 27.1541 41.9748 27.1579 39.8627C27.1634 36.7785 27.9577 32.6504 29.427 28.0701C30.8462 23.6457 33.4531 19.8937 38.7853 14.6014C44.2435 9.18398 47.566 6.70054 50.4883 5.85393C52.0348 5.40593 52.7637 4.51217 51.9408 4.07326C51.4913 3.83357 51.343 3.85055 49.9494 4.3006ZM40.8189 4.38701C39.7835 4.73797 38.86 5.3545 36.1872 7.47944C30.445 12.0443 29.1577 13.4745 27.3514 17.2958C26.2372 19.653 25.1988 22.8595 24.4098 26.3776C23.8687 28.7909 23.7632 30.1265 24.0536 30.8879C24.2596 31.4276 24.4289 31.4374 24.998 30.9419C25.3875 30.6028 25.4601 30.3595 25.5998 28.9274C26.0139 24.6775 27.9611 18.5389 29.8196 15.6248C30.9625 13.8327 31.8986 12.9034 35.2804 10.2046C39.1401 7.12454 39.9186 6.5663 41.3354 5.86233C42.2488 5.40833 42.3809 5.28095 42.3809 4.85318C42.3809 4.17338 41.8854 4.02559 40.8189 4.38701ZM121.356 4.40038C121.288 4.51028 121.403 4.84769 121.611 5.15064C122.014 5.73649 122.635 6.20403 125.187 7.84411C126.705 8.82 126.812 8.9287 127.287 9.98448C127.715 10.9341 127.852 11.0967 128.229 11.0967C129.431 11.0967 129.1 9.01905 127.677 7.63563C126.917 6.89617 124.779 5.4668 123.307 4.71448C122.493 4.29803 121.517 4.14098 121.356 4.40038ZM68.2739 4.93016C63.752 5.28249 58.8022 6.40068 54.8543 7.96138C48.5854 10.4397 43.8662 13.2869 40.5797 16.5736C35.4505 21.7035 32.0719 27.965 30.9995 34.328C30.7423 35.8544 30.6831 37.1129 30.6893 40.9288C30.6972 45.9218 30.8562 47.632 31.724 52.055C31.9542 53.2287 32.1236 54.2067 32.1004 54.2283C32.0772 54.2501 31.4399 54.6789 30.6845 55.1812C29.0702 56.2548 27.0068 58.275 25.8534 59.9112C25.013 61.1031 23.8009 63.3341 22.9663 65.2249L22.4963 66.2897L21.9319 65.6535C21.6216 65.3037 21.1918 64.727 20.9767 64.3721C20.7618 64.0172 20.2252 63.483 19.7843 63.185C18.5765 62.3687 18.1192 61.9752 16.0577 59.9778C11.6962 55.7523 9.01931 53.6473 7.36749 53.1439C5.72668 52.6439 4.2297 52.7747 3.45962 53.4857C2.73117 54.1583 2.49306 55.1569 2.59973 57.091C2.69745 58.8627 2.75096 59.0981 3.53756 61.2219C4.69784 64.3548 9.13045 70.0587 15.5468 76.676C16.4612 77.6189 17.4835 78.7951 17.8186 79.2897L18.4279 80.1888L18.2859 81.69C18.1068 83.5836 18.1381 84.2737 18.4695 85.7348C19.0175 88.1509 20.8647 92.0697 22.6447 94.5924C23.3348 95.5703 24.7397 97.8144 25.5824 99.285C26.9266 101.631 28.8493 104.186 30.5011 105.823C32.1889 107.495 32.6443 107.823 38.5959 111.655C42.3591 114.077 48.5145 116.388 57.65 118.809L58.2952 118.98L58.2963 121.402C58.2975 124.435 58.4767 125.535 59.2262 127.108C61.8394 132.591 69.7601 138.075 78.4247 140.398C81.0668 141.107 84.1563 141.256 85.7546 140.752C87.7326 140.128 89.6618 138.517 90.574 136.728C91.9355 134.057 91.8772 128.801 90.4361 124.28C90.1554 123.4 89.9654 122.639 90.0139 122.591C90.0626 122.543 90.7367 122.432 91.5123 122.346C93.7083 122.101 98.2379 121.229 100.741 120.569C106.33 119.096 113.327 116.211 118.982 113.048C126.402 108.898 129.289 106.993 131.198 104.986C132.288 103.841 133.825 101.682 135.241 99.3072C135.766 98.427 138.125 93.6564 138.125 93.4751C138.125 93.4406 138.442 92.7419 138.829 91.9222C139.216 91.1025 139.736 89.69 139.985 88.7832C140.415 87.2149 140.437 86.9334 140.434 83.0196C140.432 79.8615 140.364 78.5508 140.139 77.3822C139.977 76.5446 139.845 75.721 139.845 75.5514C139.845 75.3347 140.372 74.9697 141.622 74.3187C144.147 73.0047 145.664 71.9445 147.512 70.2015C151.572 66.3727 153.59 62.4239 153.93 57.6451C154.329 52.0207 152.32 47.3429 148.19 44.2815C146.69 43.1697 143.146 41.1658 142.291 40.9458C139.399 40.2019 135.33 40.8133 131.452 42.5744C130.746 42.8952 130.081 43.1573 129.974 43.157C129.85 43.1566 129.771 42.6815 129.754 41.8282C129.735 40.9232 129.603 40.1726 129.339 39.4715C129.013 38.6062 128.931 37.9389 128.823 35.271C128.682 31.777 128.494 30.8258 127.327 27.7272C126.026 24.2701 125.09 22.7307 122.584 19.9263C119.38 16.3416 118.374 15.5681 115.046 14.1318C108.786 11.4301 105.662 10.4153 96.2315 8.02002C91.0301 6.69883 85.6366 5.70374 80.3172 5.08378C78.361 4.85575 70.5123 4.75563 68.2739 4.93016ZM107.862 5.23448C107.408 6.08041 107.866 6.46755 109.322 6.46755C111.695 6.46755 116.404 7.81462 119.028 9.24399C121.844 10.7781 124.167 12.8211 125.23 14.6981C126.446 16.8464 127.009 17.6045 127.598 17.8831C128.12 18.1297 128.214 18.1319 128.443 17.9039C128.658 17.6899 128.666 17.543 128.495 17.0249C128.381 16.6828 128.117 16.1927 127.907 15.9358C127.698 15.6788 127.149 14.8514 126.689 14.097C125.295 11.8114 122.8 9.58998 119.678 7.8532C117.067 6.40068 112.634 5.10538 109.798 4.96651C108.165 4.88661 108.04 4.90393 107.862 5.23448ZM72.5751 7.86228C65.3648 8.25919 62.5293 8.58786 59.9297 9.32817C48.6806 12.5315 41.0792 18.2658 36.6779 26.869C35.7542 28.6745 34.4423 32.0584 33.9191 33.9851C33.5757 35.2499 33.5453 38.9373 33.8598 41.186C34.4172 45.1724 36.5829 48.7061 40.9625 52.7756C43.5238 55.1557 44.8924 56.0086 47.5423 56.8767C49.4333 57.4961 50.6744 58.1032 52.5631 59.3325C54.4949 60.5897 55.6507 60.9884 57.3634 60.9884C58.5301 60.9884 59.1126 61.1595 61.0738 62.0778C62.4225 62.7094 65.069 63.3641 68.1014 63.8162C69.5182 64.0275 73.868 64.4023 83.328 65.128C84.6607 65.2302 87.4276 65.2717 89.5217 65.2208C93.6214 65.121 93.9376 65.0725 100.447 63.5418C104.472 62.5952 107.413 61.7738 109.393 61.0434C113.789 59.4217 117.551 56.674 119.937 53.3417C120.48 52.5832 122.125 49.8683 122.125 49.7305C122.125 49.6808 122.268 49.4351 122.444 49.1848C122.62 48.9345 122.959 48.3826 123.199 47.9582C123.438 47.5339 123.837 46.8294 124.087 46.3926C125.175 44.4854 125.416 43.3644 125.612 39.3C125.87 33.9623 125.836 32.5115 125.421 30.9527C124.712 28.2958 123.317 25.5351 121.746 23.6819C119.336 20.8372 117.177 18.5897 116.388 18.1041C114.441 16.9059 105.48 13.5174 100.791 12.2061C88.3986 8.74147 80.0247 7.45235 72.5751 7.86228ZM25.5568 11.8253C24.2702 13.5153 23.8565 14.3984 23.7537 15.6744C23.6839 16.5417 23.7186 16.767 23.9352 16.8498C24.4827 17.0593 24.898 16.6014 25.2605 15.3886C25.5112 14.5497 25.8933 13.8345 26.5574 12.961C27.0753 12.2798 27.4989 11.5862 27.4989 11.4193C27.4989 11.1457 26.9063 10.5823 26.6185 10.5823C26.555 10.5823 26.0772 11.1416 25.5568 11.8253ZM87.9745 11.436C87.9077 11.6455 87.9241 11.8877 88.011 11.9743C88.2807 12.2432 90.4067 12.781 92.3293 13.0671C94.9414 13.4556 95.772 13.6576 96.7358 14.1392C97.2024 14.3722 98.3775 14.7055 99.347 14.8797C100.904 15.1595 104.192 16.2158 104.662 16.5872C104.999 16.8536 107.624 17.6104 109.977 18.1194C112.626 18.6926 113.317 19.0159 115.071 20.5025C118.331 23.2672 119.495 24.8081 121.165 28.5694C122.129 30.7398 122.469 31.9898 122.469 33.3609C122.469 34.2553 122.521 34.4299 122.844 34.602C123.163 34.7719 123.266 34.7457 123.523 34.4292C124.311 33.4591 124.009 31.2322 122.672 28.1605C120.996 24.3106 119.832 22.7717 116.017 19.3598C114.171 17.7089 113.345 17.324 110.763 16.9112C108.731 16.5861 107.87 16.3056 104.315 14.8089C103.746 14.5692 101.927 14.0218 100.272 13.5921C98.6177 13.1625 96.0638 12.4554 94.5971 12.021C92.3426 11.353 91.6339 11.2172 90.0131 11.1428C88.1464 11.0572 88.0925 11.065 87.9745 11.436ZM70.4245 12.2939C69.5729 12.3741 68.1793 12.4876 67.3277 12.5464C65.3564 12.6824 61.9705 13.2345 59.7576 13.781C57.4322 14.3552 54.9785 15.0544 54.7683 15.2025C54.6736 15.2692 54.2091 15.4642 53.736 15.6358C51.2976 16.5199 49.4274 17.6966 47.4859 19.5683C44.0365 22.8932 42.3169 25.5507 40.7084 30.0418C39.6782 32.9182 39.3171 34.8088 39.3004 37.4141C39.2713 41.9481 40.1279 43.7834 44.8899 49.391C48.4972 53.6389 51.8053 55.9027 56.9188 57.6226C59.5044 58.4922 67.0646 60.3929 69.9944 60.91C72.278 61.3129 73.1587 61.3659 80.4032 61.5367C89.157 61.7431 91.3824 61.6491 95.4916 60.9002C99.1023 60.242 102.136 59.0599 104.662 57.3272C108.401 54.7622 110.879 52.1219 114.422 46.9295C117.913 41.8137 118.861 39.0334 118.629 34.5953C118.497 32.0598 118.307 31.1091 117.571 29.3111C115.86 25.1289 113.824 23.0995 107.747 19.5195C104.727 17.7403 103.421 17.3223 94.081 15.1448C92.6143 14.8027 90.4465 14.2954 89.2636 14.0171C86.7676 13.4299 83.9772 12.9221 81.1774 12.5454C78.8455 12.2317 72.6305 12.0863 70.4245 12.2939ZM68.36 15.4757C59.7812 16.5043 54.056 19.0979 50.7761 23.441C49.1601 25.5809 48.4868 27.7121 48.3635 31.0801C48.2871 33.1637 48.3249 33.6863 48.642 34.9377C49.1305 36.8658 49.8937 38.3826 51.5703 40.7574C52.3359 41.8418 53.2912 43.2876 53.6933 43.9702C54.3406 45.0693 54.4832 45.212 54.9403 45.2159C55.6643 45.2221 55.8368 45.3766 55.9822 46.1491C56.1169 46.8649 57.1637 47.9685 59.4135 49.7675C61.63 51.5398 62.2144 52.0267 63.558 53.2197C64.3234 53.8993 65.4319 55.0655 66.0212 55.8111C67.0337 57.0918 67.1505 57.1827 68.1406 57.457C69.8339 57.9261 72.3003 58.2417 75.194 58.3597C77.608 58.4581 77.9104 58.4396 78.0073 58.1883C78.1945 57.702 77.2816 56.4376 75.7353 55.0411C74.9196 54.3044 73.7395 53.165 73.1126 52.5088C70.6311 49.9112 69.6622 49.0097 67.8646 47.6268C65.0161 45.4355 62.3681 42.7194 59.0777 38.6143C56.5944 35.516 55.9328 33.6335 56.099 30.1385C56.2403 27.1688 57.4543 24.2204 59.1527 22.7219C61.5571 20.6006 65.8214 19.1651 69.7363 19.1591C73.1628 19.1537 76.2645 19.8829 79.3666 21.4227C81.9998 22.7298 83.3958 24.1085 83.7977 25.7984C83.9154 26.2934 84.0671 26.6985 84.1349 26.6985C84.3137 26.6985 84.6165 25.5126 84.6165 24.8126C84.6165 23.1295 83.4731 21.2381 80.9464 18.7416C78.8287 16.649 78.1348 16.1616 76.7903 15.8218C74.2462 15.1787 71.7052 15.0745 68.36 15.4757ZM79.9029 15.5286C79.8076 15.6824 80.3614 16.2184 81.829 17.3928C82.6013 18.0107 82.7112 17.9648 83.0632 16.876C83.3765 15.9068 83.257 15.7877 81.8371 15.655C81.143 15.5902 80.4462 15.4993 80.2886 15.453C80.1311 15.4067 79.9575 15.4408 79.9029 15.5286ZM84.8415 16.4011C84.7947 16.5482 84.5705 17.1517 84.3433 17.7422C83.8844 18.9345 83.828 19.4987 84.1367 19.8063C84.4479 20.1164 84.5693 20.059 84.6991 19.5405C84.7641 19.2813 84.9933 18.8376 85.2085 18.5547C85.7572 17.8332 86.1668 17.0022 86.1668 16.6103C86.1668 16.1693 84.9752 15.9811 84.8415 16.4011ZM87.4124 17.6546C87.2197 18.1496 86.6761 19.2463 86.2043 20.0916L85.3466 21.6283L85.705 22.3633C85.902 22.7674 86.1166 23.0981 86.1816 23.0981C86.2466 23.0981 86.3521 22.7508 86.4159 22.3262C86.4921 21.8201 86.7922 21.1859 87.2884 20.4832C88.7941 18.3505 89.4357 17.3846 89.4357 17.2503C89.4357 17.1193 88.3523 16.7574 87.9542 16.7555C87.8491 16.755 87.6053 17.1596 87.4124 17.6546ZM90.8929 17.7993C90.8301 17.9966 90.5538 18.4901 90.2792 18.8957C89.2993 20.3426 89.8183 20.401 90.934 18.9694C91.728 17.951 91.8098 17.7011 91.4001 17.5444C91.0202 17.3991 91.0204 17.399 90.8929 17.7993ZM92.8766 18.3833C92.8766 18.6531 93.3549 18.7148 94.0361 18.5329C94.6186 18.3773 94.3215 18.1261 93.5547 18.1261C93.0667 18.1261 92.8766 18.1981 92.8766 18.3833ZM94.1355 19.916C92.2117 20.3522 91.6265 20.7098 90.8091 21.9489C89.946 23.257 89.4925 23.5751 88.9227 23.2713C88.5844 23.0907 88.47 23.1327 87.9616 23.6238C87.4062 24.1602 86.855 25.0866 86.855 25.4837C86.855 25.5884 87.1676 25.4775 87.5497 25.2371C88.5219 24.6255 91.0486 23.5379 92.4622 23.1225C95.2891 22.2918 96.9884 22.0509 100.74 21.9492C104.241 21.8542 104.43 21.8659 105.434 22.24C106.425 22.6095 106.791 22.6232 106.58 22.2827C106.393 21.9804 103.257 20.5418 101.995 20.1794C100.314 19.6964 95.7748 19.5443 94.1355 19.916ZM50.4576 20.7359C49.8558 21.2075 48.8437 22.2817 48.8373 22.4552C48.8194 22.9498 49.9948 21.9923 51.0472 20.655C51.3783 20.2344 51.0378 20.281 50.4576 20.7359ZM66.7255 21.0183C65.8529 21.2945 65.7832 21.3546 65.8309 21.7925C65.8701 22.1533 65.6607 22.5424 64.9596 23.4115C63.9757 24.6312 62.648 26.6183 62.095 27.6984C61.7623 28.3484 61.7621 28.359 62.0914 28.6399C62.2745 28.7962 62.4243 29.0417 62.4243 29.1856C62.4243 29.3294 61.8888 30.5284 61.2341 31.8497C60.5795 33.1711 59.8882 34.7119 59.6978 35.2736L59.3516 36.2951L60.2428 37.4417C60.733 38.0725 61.2186 38.616 61.3222 38.6496C61.4258 38.6832 61.7506 38.2647 62.0441 37.7195C62.3376 37.1744 63.0836 35.8423 63.702 34.7594C64.6768 33.0521 64.7934 32.7579 64.5801 32.5453C64.3853 32.351 64.2818 32.3433 64.0824 32.5083C63.8293 32.7176 62.9756 34.0998 62.3371 35.3337C62.1486 35.6982 61.714 36.3139 61.3716 36.7021C60.8278 37.3183 60.7133 37.3783 60.4683 37.1756C60.3004 37.0368 60.1877 36.686 60.1877 36.3021C60.1877 35.7936 60.4267 35.3097 61.3411 33.9658C63.1963 31.2394 63.6287 30.2997 63.6287 28.9937C63.6287 27.6945 63.9313 26.9986 65.0408 25.7467C65.4544 25.28 66.5858 23.9533 67.5553 22.7981L69.3179 20.6978L68.4948 20.7083C68.0422 20.7141 67.246 20.8535 66.7255 21.0183ZM70.8546 21.1865C70.8546 21.57 70.6325 21.8676 69.8224 22.5699C68.8372 23.4237 68.5828 23.7839 68.9645 23.7839C69.3738 23.7839 70.3158 22.9656 71.1645 21.8724L72.0763 20.6978H71.4656C70.9087 20.6978 70.8546 20.741 70.8546 21.1865ZM73.9487 21.4764C73.8574 21.7161 73.5334 22.044 73.229 22.205C71.6452 23.0434 71.315 24.0603 72.7675 23.6267C73.4123 23.4341 75.3279 21.8863 75.3279 21.5576C75.3279 21.4261 74.549 21.0407 74.2832 21.0407C74.1906 21.0407 74.0403 21.2369 73.9487 21.4764ZM40.7033 21.7236C40.1703 22.1414 38.8947 24.1575 38.0868 25.859C36.3821 29.4489 35.59 33.1728 35.5869 37.6096C35.5844 41.0639 35.8653 42.4677 37.1433 45.3865C38.6348 48.7927 38.8744 49.2174 39.4097 49.4027C40.5546 49.7986 40.4115 48.6464 38.9107 45.3865C37.3917 42.0864 37.2135 41.2367 37.2389 37.4141C37.2601 34.2344 37.5593 31.8554 38.2253 29.5729C38.7634 27.7284 38.999 27.1867 39.8883 25.7489C40.9641 24.0095 41.3842 23.2603 41.6819 22.5502C41.921 21.9801 41.9207 21.8925 41.6784 21.6511C41.3319 21.3058 41.2261 21.3137 40.7033 21.7236ZM62.7882 22.3348C61.8475 22.7417 60.085 24.0706 59.4306 24.8663C59.0971 25.2717 58.5698 26.1393 58.2587 26.794C57.7001 27.9695 57.6931 28.0154 57.6931 30.4704C57.6931 32.1914 57.7657 33.1279 57.9289 33.5136C58.0588 33.8202 58.2187 34.0709 58.2842 34.0709C58.3899 34.0709 59.8436 31.4446 59.8436 31.2536C59.8436 31.2119 59.5885 31.219 59.2766 31.2695C58.8883 31.3323 58.6407 31.2786 58.4915 31.0996C58.2627 30.8248 58.4642 30.2755 59.1625 29.2703C60.8713 26.8107 63.6287 22.472 63.6287 22.2427C63.6287 22.0161 63.4898 22.0312 62.7882 22.3348ZM78.2659 23.3705C77.9748 23.6147 77.7365 23.9619 77.7365 24.1421C77.7365 24.3223 77.7658 24.4697 77.8015 24.4697C77.8373 24.4697 78.1412 24.5841 78.4767 24.7238L79.0869 24.9779L79.5394 24.171C79.9637 23.4146 79.9731 23.3507 79.6915 23.1454C79.2409 22.8171 78.8528 22.8785 78.2659 23.3705ZM75.7846 23.4117C75.6281 23.5842 75.4999 23.7796 75.4999 23.8463C75.4999 24.0536 76.142 23.6365 76.2485 23.3601C76.3865 23.0019 76.131 23.0304 75.7846 23.4117ZM97.7283 23.6467C97.6148 23.7599 97.5219 23.9408 97.5219 24.0488C97.5219 24.1568 97.2155 24.7176 96.8408 25.2952C95.9706 26.637 95.5797 27.392 95.6956 27.5076C95.746 27.5578 96.3974 27.5001 97.1429 27.3795L98.4986 27.1601L98.421 26.3563C98.3582 25.7043 98.4272 25.4206 98.7859 24.8541C99.0294 24.4699 99.3089 24.1061 99.4073 24.0454C99.5059 23.9847 99.5864 23.824 99.5864 23.6881C99.5864 23.3755 98.0351 23.3411 97.7283 23.6467ZM102.102 23.6183C101.829 23.6997 101.422 23.9386 101.197 24.1493C100.81 24.5114 99.5864 26.5581 99.5864 26.8431C99.5864 26.9161 100.139 26.893 100.815 26.7916C101.994 26.6149 102.046 26.5874 102.097 26.1098C102.126 25.8361 102.425 25.2145 102.761 24.7282C103.097 24.2422 103.371 23.7537 103.371 23.6428C103.371 23.4124 102.827 23.4019 102.102 23.6183ZM104.31 25.1812C103.778 25.9375 103.369 26.5775 103.4 26.6036C103.432 26.6294 103.778 26.6997 104.17 26.7596C104.809 26.857 104.893 26.8285 104.982 26.4834C105.037 26.2716 105.354 25.6866 105.689 25.1834C106.023 24.6801 106.296 24.2441 106.296 24.2144C106.296 24.1846 106.067 24.0807 105.787 23.9833C105.286 23.8095 105.26 23.8307 104.31 25.1812ZM94.4297 24.1306C94.1011 24.2076 93.8105 24.3351 93.7842 24.414C93.7579 24.4927 93.3542 25.2042 92.8871 25.9949C91.9658 27.5551 91.5794 28.3775 91.7079 28.5056C91.8148 28.6121 94.2952 28.067 94.4841 27.8956C94.5637 27.8232 94.5377 27.5942 94.4264 27.3867C94.1611 26.893 94.284 26.4691 95.0214 25.3328C95.9176 23.9514 95.8427 23.7993 94.4297 24.1306ZM80.8707 24.684C80.6809 24.9143 80.6083 25.2369 80.641 25.707C80.6644 26.0472 82.1578 27.783 82.2655 27.5952C82.3049 27.5265 82.2782 26.9869 82.2059 26.3966C82.0174 24.8536 81.3922 24.0519 80.8707 24.684ZM107.443 25.3744C106.9 25.885 106.468 26.618 106.468 27.0293C106.468 27.1669 107.791 27.7272 108.116 27.7272C108.211 27.7272 108.408 27.4764 108.554 27.17C108.7 26.8636 108.967 26.3635 109.149 26.0589C109.558 25.3727 109.347 24.923 108.581 24.8462C108.184 24.8066 107.914 24.9321 107.443 25.3744ZM71.3708 25.085C68.35 25.6076 67.306 25.9728 66.332 26.8479C65.1793 27.8834 64.7234 29.367 65.1854 30.5779C65.3808 31.0902 66.6801 32.9206 68.4315 35.1511C69.0385 35.9242 71.2366 38.2542 73.3159 40.3287C77.343 44.3467 79.1155 46.3344 80.2713 48.1297C81.0938 49.4071 82.1156 51.5549 82.2902 52.373C82.3556 52.6796 82.4709 52.9303 82.5466 52.9303C82.6221 52.9303 83.0099 52.5093 83.4082 51.9947C84.7854 50.2159 87.3489 47.991 89.4722 46.7315C91.9441 45.2655 95.7694 43.8054 98.8983 43.1335C99.9348 42.9109 100.733 42.6316 101.08 42.37C101.408 42.123 101.862 41.9575 102.211 41.9575C103.891 41.9575 106.51 40.6001 108.288 38.808C111.261 35.8126 111.68 32.4831 109.352 30.3552C108.555 29.626 107.284 28.9586 105.932 28.5581C104.663 28.1821 100.371 28.2779 98.1241 28.7324C95.1896 29.3258 93.2118 29.8535 93.2161 30.0418C93.2181 30.1361 93.9311 30.3082 94.8001 30.4241C98.7298 30.9488 100.963 32.5496 100.963 34.8424C100.963 37.1653 98.7919 38.9193 92.7906 41.4452C91.8443 41.8435 90.5282 42.4007 89.8658 42.6834C88.7386 43.1645 86.8051 44.1882 85.2205 45.1429C84.1391 45.7944 83.2952 45.9751 82.8107 45.6586C82.5891 45.5141 82.3556 45.2315 82.2916 45.0309C82.0974 44.4206 79.494 40.2408 78.723 39.3014C77.8939 38.2912 77.1189 37.6792 75.4139 36.6885C74.7515 36.3038 74.039 35.8071 73.8307 35.5847C72.9391 34.6337 72.656 32.8752 73.2079 31.7162C73.8372 30.3946 76.2388 30.0682 79.9619 30.7979C80.9495 30.9915 81.7851 31.1223 81.8188 31.0885C81.8527 31.0547 81.4868 30.2057 81.0056 29.2017C79.8391 26.7675 79.0819 26.1952 76.1021 25.4951C74.7126 25.1689 72.1641 24.9479 71.3708 25.085ZM90.2099 25.6443C88.966 26.2325 87.8443 27.3938 87.2701 28.6874C86.766 29.8234 86.7328 30.2158 87.1561 30.037C87.3216 29.9672 88.0118 29.7166 88.6899 29.4803C89.8526 29.075 89.9291 29.016 90.037 28.4432C90.0998 28.1092 90.4203 27.3034 90.7493 26.6526C91.0781 26.0019 91.3236 25.399 91.2947 25.3127C91.2658 25.2265 90.7777 25.3758 90.2099 25.6443ZM51.5018 25.9406C50.9782 26.5034 50.5519 28.3307 50.5569 29.9898C50.5616 31.5898 50.9865 33.4833 52.0885 36.814C53.1856 40.1302 54.3722 42.5749 55.6817 44.217C57.8947 46.9923 61.22 49.0877 61.22 47.7071C61.22 47.155 60.4253 46.2696 58.9084 45.1321C57.067 43.7509 55.6326 41.8954 54.4624 39.3808C53.7387 37.8259 52.8611 34.9171 52.6256 33.2933C52.373 31.5511 52.408 28.6397 52.6997 27.1196C52.8396 26.3915 52.9124 25.729 52.8616 25.6472C52.6736 25.3439 51.902 25.5104 51.5018 25.9406ZM110.254 27.2124C109.786 28.2078 109.898 28.5492 110.415 27.7037C110.713 27.2177 110.903 26.3556 110.713 26.3556C110.682 26.3556 110.475 26.7412 110.254 27.2124ZM46.6501 28.1845C45.3933 30.1184 43.8352 33.3851 44.1697 33.3851C44.2519 33.3851 44.5251 32.9652 44.7772 32.452C45.029 31.9389 45.571 31.1468 45.9815 30.6918C46.5148 30.1008 46.8125 29.5636 47.0248 28.8094C47.4241 27.3915 47.2999 27.1846 46.6501 28.1845ZM111.833 28.0506C111.351 28.9056 111.36 29.445 111.888 31.2586C112.13 32.0908 112.318 33.179 112.318 33.7472C112.318 34.3023 112.372 34.7566 112.437 34.7566C112.503 34.7566 112.769 34.5542 113.028 34.3066C113.531 33.8274 114.252 33.8276 114.437 34.3071C114.488 34.4398 113.731 35.712 112.74 37.1607C111.756 38.5985 110.606 40.4781 110.184 41.3377C109.38 42.974 108.807 44.5164 108.949 44.6583C108.995 44.7041 109.278 44.5975 109.577 44.4212C109.98 44.1836 110.234 43.8122 110.557 42.9862C110.796 42.3733 111.577 40.9845 112.292 39.9001C114.284 36.8782 114.899 35.4006 114.899 33.6338C114.899 33.0632 114.689 32.8584 114.468 33.2136C114.308 33.4725 113.753 33.4193 113.448 33.1157C113.296 32.9638 113.178 32.5575 113.178 32.1846C113.178 31.6291 113.116 31.5142 112.791 31.4683C112.192 31.3834 112.202 30.5467 112.817 29.1945C113.332 28.0638 113.333 28.0528 112.999 27.7199C112.508 27.2311 112.255 27.3029 111.833 28.0506ZM84.569 29.2524C83.9342 29.9526 83.6384 30.8533 83.8378 31.4792L83.9501 31.8321L84.5403 31.4513C84.9895 31.1614 85.1307 30.9508 85.1324 30.5683C85.1335 30.2921 85.2274 29.81 85.3411 29.4969C85.6799 28.563 85.3024 28.4435 84.569 29.2524ZM104.002 30.0704C103.752 30.3194 103.915 30.8617 104.49 31.6939C104.996 32.4277 105.092 32.714 105.092 33.4955C105.092 34.7759 104.78 35.4109 103.465 36.8056C102.233 38.1136 101.834 38.8306 102.203 39.0761C102.812 39.4811 104.321 38.6278 105.334 37.3059C106.212 36.1598 106.542 35.0899 106.542 33.3928C106.541 31.1691 105.824 29.9561 104.51 29.9561C104.294 29.9561 104.065 30.0075 104.002 30.0704ZM140.317 31.7841C139.605 32.0783 139.265 32.779 139.693 33.0689C139.962 33.2506 144.235 33.1829 144.424 32.994C144.659 32.7598 144.174 32.0654 143.577 31.7834C142.821 31.4257 141.183 31.4261 140.317 31.7841ZM89.7669 31.9154C88.3312 32.2295 88.2845 32.2619 87.7357 33.3343C87.1834 34.4137 85.7597 36.4156 83.0448 39.9303C82.406 40.7574 82.1404 41.3586 82.2677 41.6894C82.4339 42.1209 82.8676 41.999 83.1581 41.439C83.6616 40.4688 85.9886 37.0434 86.9988 35.7853C87.8806 34.6872 89.6377 32.8673 90.0059 32.6706C90.4171 32.4512 90.8121 32.7757 90.8121 33.3331C90.8121 33.6066 90.4888 34.0933 89.8865 34.7265C89.3774 35.2617 88.4934 36.394 87.922 37.2427C87.3507 38.0913 86.4108 39.3643 85.8334 40.0716C84.818 41.3154 83.4323 43.7473 83.6281 43.9424C83.7406 44.0547 84.7641 43.5556 87.7152 41.9496C88.898 41.306 90.3496 40.6394 90.9409 40.4683C92.0513 40.147 92.1456 40.0273 91.8308 39.3386C91.6684 38.9837 91.7807 38.7068 92.7207 37.1446C93.9013 35.1829 94.8817 33.9157 95.6292 33.3852C96.822 32.5388 97.0761 33.8838 95.9747 35.2134C94.4471 37.057 93.0125 39.3858 93.4045 39.3858C93.5013 39.3858 94.3977 38.9806 95.3961 38.4857C97.3497 37.517 99.0431 36.1644 99.4113 35.2785C99.6083 34.8047 99.5864 34.7033 99.1722 34.1619C98.2342 32.9365 96.6023 32.1136 94.8586 31.9867C94.0543 31.9283 94.0453 31.9334 93.778 32.6135C93.3198 33.7787 91.7483 36.3108 90.4792 37.9285C89.8133 38.7771 88.8662 40.0308 88.3743 40.7145C87.8825 41.3982 87.3901 41.9575 87.2801 41.9575C87.1703 41.9575 86.9355 41.7981 86.7586 41.6031C86.4428 41.2554 86.446 41.2325 86.937 40.3601C87.2122 39.8713 87.9064 38.8272 88.4795 38.0397C91.0141 34.5576 91.9025 33.2506 92.2068 32.5564C92.3859 32.1479 92.5325 31.7813 92.5325 31.7421C92.5325 31.597 90.6964 31.7122 89.7669 31.9154ZM74.6674 32.4501C74.443 32.9405 74.3995 33.7286 74.5967 33.7268C74.7443 33.7254 75.4245 32.7624 75.5949 32.3135C75.792 31.7942 74.9077 31.9245 74.6674 32.4501ZM77.7365 32.339C77.7365 32.4239 77.272 33.0041 76.7042 33.6283C76.1365 34.2528 75.6719 34.8297 75.6719 34.9104C75.6719 35.1412 76.1557 35.4826 76.3304 35.3751C76.4169 35.3217 76.533 35.0644 76.5886 34.8031C76.644 34.5418 76.9626 34.0355 77.2968 33.6781C78.2105 32.6999 78.4512 32.1849 77.9946 32.1849C77.8526 32.1849 77.7365 32.2543 77.7365 32.339ZM45.7678 33.9279C44.8702 35.5489 44.4031 36.6134 43.9365 38.0999C43.5988 39.1761 43.5104 39.3059 43.0806 39.3561C42.6457 39.407 42.6109 39.4605 42.7061 39.9348C42.7639 40.2221 42.811 40.5249 42.811 40.6073C42.811 40.9688 43.3008 40.7135 43.4056 40.2974C43.4694 40.0445 43.6714 39.543 43.8545 39.1829C44.0375 38.8231 44.351 38.2005 44.5509 37.7999C44.751 37.3992 45.1699 36.6469 45.4822 36.1282C46.1914 34.9497 46.8491 33.0543 46.6261 32.8321C46.5246 32.731 46.2034 33.1413 45.7678 33.9279ZM80.6389 34.1603C79.3801 35.7085 78.6754 36.9711 78.8853 37.3025C79.2001 37.8 79.5566 37.6123 80.4643 36.4711C82.1428 34.3611 82.2837 34.112 82.0671 33.6379C81.7786 33.0072 81.4911 33.1124 80.6389 34.1603ZM84.6963 33.7581C84.3541 34.0575 83.7669 34.7532 83.3917 35.3039C83.0163 35.8548 82.2858 36.7782 81.7683 37.3562C80.6457 38.61 80.4712 39.101 80.971 39.5992L81.3259 39.9529L81.8109 39.1252C82.0776 38.6698 82.7603 37.7128 83.3282 36.9985C84.5163 35.5037 85.5158 34.1279 85.8058 33.5879C85.9813 33.2611 85.9631 33.2136 85.6627 33.2136C85.4734 33.2136 85.0385 33.4586 84.6963 33.7581ZM64.5195 36.4283C63.9444 37.4421 63.2804 38.5316 63.0441 38.8497C62.4431 39.6587 62.3158 40.3538 62.6929 40.7689C63.1299 41.2501 63.3544 41.1807 63.7004 40.4573C63.8695 40.1038 64.3798 39.3048 64.8344 38.682C66.2832 36.6966 66.6367 35.724 66.2034 34.9168C66.1053 34.7344 65.9217 34.5852 65.7953 34.5852C65.669 34.5852 65.0949 35.4145 64.5195 36.4283ZM139.071 35.5311C136.121 35.8436 135.372 36.1994 135.372 37.2893C135.372 37.8172 135.415 37.8727 135.759 37.7923C139.312 36.9627 140.749 36.7551 143.028 36.742C145.191 36.7297 145.517 36.7674 146.218 37.112C146.734 37.3654 147.143 37.7361 147.423 38.2033C148.278 39.6347 148.834 39.918 149.153 39.0857C149.581 37.9718 148.324 36.2558 146.612 35.6177C145.837 35.3288 145.304 35.2744 143.409 35.2917C142.159 35.3031 140.207 35.4109 139.071 35.5311ZM42.3085 36.7712C42.3159 37.3135 42.3666 37.6413 42.4212 37.4998C42.4757 37.3584 42.6603 36.9147 42.8317 36.514L43.1429 35.7853H42.7188C42.3159 35.7853 42.2956 35.834 42.3085 36.7712ZM46.4452 37.5295C46.0551 38.3147 45.3728 39.6515 44.9287 40.5002C44.2547 41.7888 44.1198 42.2029 44.1115 43.0107C44.1039 43.7313 44.185 44.0703 44.4291 44.3395C44.6094 44.5382 44.8081 44.7007 44.8708 44.7007C44.9336 44.7007 45.1168 44.2956 45.2782 43.8006C45.4394 43.3056 45.8413 42.399 46.1713 41.7861C46.5011 41.1731 47.0485 40.1153 47.3878 39.4352L48.0044 38.1987L47.7092 37.292C47.5468 36.7935 47.3556 36.3216 47.2842 36.2436C47.2128 36.1656 46.8352 36.7443 46.4452 37.5295ZM66.468 38.9143C65.819 39.9752 65.0899 41.2043 64.8475 41.6458L64.4068 42.4485L64.822 42.8888C65.0503 43.1309 65.3357 43.3291 65.4562 43.3291C65.5766 43.3291 66.0413 42.6541 66.4888 41.8289C66.9361 41.0039 67.6412 39.8502 68.0554 39.2652L68.8087 38.2019L68.5022 37.7222C68.1996 37.2485 67.9366 36.9932 67.7458 36.9881C67.6919 36.9867 67.1169 37.8535 66.468 38.9143ZM122.881 37.7407C122.83 37.8731 122.813 38.2396 122.844 38.5551C122.891 39.0446 122.972 39.1368 123.396 39.1852C123.679 39.2174 123.956 39.1433 124.039 39.0137C124.252 38.6789 124.22 37.9423 123.983 37.7056C123.7 37.4237 122.995 37.4462 122.881 37.7407ZM68.5069 41.4006C67.8402 42.5089 67.1909 43.702 67.0639 44.0519C66.8564 44.6235 66.8652 44.7238 67.15 45.0374C67.6198 45.5547 67.8811 45.4681 68.2948 44.6578C68.4993 44.2572 69.1977 43.1871 69.8466 42.2802C70.4957 41.3732 71.0267 40.5583 71.0267 40.4692C71.0267 40.2578 70.1121 39.3858 69.8903 39.3858C69.796 39.3858 69.1734 40.2926 68.5069 41.4006ZM48.0596 41.4862C46.8407 44.0595 46.1166 45.215 45.7234 45.215C45.2661 45.215 45.3067 45.3661 45.9753 46.1536C46.4792 46.7473 46.5897 46.8052 46.833 46.6041C46.9866 46.4771 47.1122 46.2917 47.1122 46.1923C47.1122 46.0929 47.6471 45.1573 48.301 44.1131C49.8995 41.5603 49.9633 41.4082 49.7013 40.7774C49.5847 40.4971 49.355 40.1465 49.1907 39.9984C48.912 39.747 48.8361 39.8468 48.0596 41.4862ZM71.852 42.0861C71.7088 42.251 71.1832 43.0033 70.6841 43.7577C70.1849 44.5121 69.5498 45.3693 69.2728 45.6625L68.7693 46.1957L69.3004 46.6412C69.5927 46.8862 69.9271 47.0502 70.0438 47.0057C70.1603 46.9609 70.4407 46.577 70.6668 46.1525C71.2342 45.0866 72.3009 44.1509 72.8707 44.2189C73.6468 44.3119 73.7331 44.7424 73.1267 45.4931C72.8311 45.8588 72.2398 46.5981 71.8126 47.136L71.0356 48.1139L71.4766 48.6361C71.719 48.9233 72.0461 49.1532 72.2033 49.1469C72.5619 49.1323 75.6719 45.3918 75.6719 44.975C75.6719 44.6772 72.5434 41.7931 72.2147 41.7878C72.1584 41.7867 71.9951 41.9212 71.852 42.0861ZM107.728 42.1725C106.924 43.0628 105.595 45.6022 105.817 45.8233C105.913 45.9187 107.529 45.3932 107.746 45.1964C107.842 45.1096 107.79 44.9244 107.617 44.7341C107.239 44.3173 107.249 44.1923 107.769 42.9624C108.011 42.3892 108.179 41.8905 108.142 41.854C108.106 41.8173 107.919 41.9608 107.728 42.1725ZM50.6622 43.2005C49.5456 44.9733 48.3886 46.9707 48.1242 47.5817C47.8286 48.2644 47.8253 48.351 48.0803 48.739C48.232 48.9696 48.379 49.1584 48.4068 49.1584C48.4347 49.1584 48.7848 48.5604 49.1848 47.8296C49.5848 47.0989 50.3322 45.9038 50.8454 45.1739L51.7788 43.8467L51.473 43.3308C51.1069 42.7133 50.9817 42.693 50.6622 43.2005ZM104.269 43.8863C102.942 45.5936 101.936 47.0993 102.047 47.2102C102.166 47.3282 104.179 46.6561 104.519 46.3847C104.67 46.2643 104.649 46.1006 104.435 45.7282C104.158 45.2471 104.166 45.1989 104.705 44.1092C105.011 43.4916 105.195 42.9862 105.114 42.9862C105.034 42.9862 104.654 43.3913 104.269 43.8863ZM120.608 43.8006C118.761 48.0007 118.7 48.116 116.942 50.7014C115.237 53.2102 114.283 54.1669 112.326 55.3348C110.284 56.5533 110.143 56.6303 109.191 57.0401C108.184 57.4737 107.107 58.4614 107.187 58.879C107.23 59.1057 107.432 59.2019 107.945 59.2394C108.844 59.3053 110.274 58.5642 113.081 56.5777C114.211 55.778 115.229 55.0876 115.344 55.0437C115.579 54.954 117.875 52.0269 118.953 50.4442C120.056 48.8249 120.685 47.6378 121.319 45.9802C122.308 43.3955 122.31 42.9958 121.33 42.9888C121.06 42.9869 120.874 43.1955 120.608 43.8006ZM137.748 43.6794C134.825 44.019 131.985 45.243 130.773 46.6854C129.544 48.1491 129.351 48.6884 129.351 50.656C129.351 51.9288 129.409 52.4159 129.561 52.4159C129.677 52.4159 130.649 51.8307 131.722 51.1156C134.091 49.5369 134.857 49.1863 136.319 49.0108C140.603 48.4969 143.792 50.8873 144.101 54.8421C144.419 58.9034 139.926 64.745 134.331 67.5458C131.873 68.7763 129.826 69.2371 126.954 69.2061L124.643 69.1812L124.438 69.8425C124.325 70.2062 124.03 70.9281 123.783 71.4468C123.144 72.7839 123.181 73.2334 123.974 73.7408C124.97 74.378 126.276 74.6217 128.49 74.5838C134.644 74.478 141.423 71.9148 145.665 68.09C149.009 65.0738 150.856 60.8087 150.856 56.1021C150.856 52.3808 149.855 49.6036 147.724 47.419C146.848 46.5213 144.275 44.8958 142.739 44.2704C141.827 43.899 139.689 43.4664 139.071 43.5283C138.977 43.5379 138.381 43.6058 137.748 43.6794ZM101.32 44.5462C100.453 45.0717 98.8752 46.8085 98.305 47.865C98.0262 48.3819 97.8407 48.8474 97.893 48.8995C97.9453 48.9516 98.4057 48.8004 98.9163 48.5636C99.4268 48.3268 99.981 48.1323 100.148 48.1314C100.4 48.13 100.435 48.0213 100.357 47.4867C100.258 46.8044 100.525 46.2386 101.546 44.9673C101.819 44.627 102.009 44.3148 101.968 44.2738C101.927 44.2326 101.635 44.3552 101.32 44.5462ZM97.4715 45.3985C97.0329 45.6881 96.2945 46.3387 95.8307 46.8445C94.7058 48.071 92.8178 50.8729 93.1163 50.8729C93.5997 50.8729 96.6085 49.593 96.9954 49.2228C97.0369 49.1831 96.9015 49.0322 96.6943 48.8875C96.487 48.743 96.3176 48.4421 96.3176 48.2188C96.3176 47.8374 97.0675 46.7171 97.978 45.7386C98.3198 45.3712 98.5201 44.8721 98.3255 44.8721C98.2946 44.8721 97.9102 45.1091 97.4715 45.3985ZM110.856 45.5639C110.382 45.8407 108.989 46.3874 107.759 46.7792C106.529 47.1709 105.445 47.5476 105.35 47.6164C105.255 47.6851 104.752 47.8787 104.232 48.0467C103.711 48.2145 102.705 48.6001 101.995 48.9034C101.285 49.2069 100.008 49.7435 99.1563 50.096C98.3047 50.4485 97.1047 50.957 96.4896 51.2259C95.8745 51.4949 94.392 52.0994 93.1949 52.5694C87.9625 54.6231 84.4463 56.9806 84.4463 58.435C84.4463 58.5936 85.359 58.6167 88.3604 58.5339C98.004 58.2675 101.546 56.9099 107.232 51.3015C109.113 49.4457 110.775 47.2985 111.782 45.4239C112.046 44.9313 111.899 44.9534 110.856 45.5639ZM51.8399 46.4634C51.4835 47.0497 50.9438 47.9154 50.6409 48.3869C50.3377 48.8583 49.9984 49.5122 49.8868 49.8401C49.7018 50.3829 49.7185 50.4624 50.0753 50.7342C50.6684 51.1858 51.4125 51.4582 51.5752 51.2833C51.8159 51.0248 53.822 47.13 53.822 46.9213C53.822 46.6346 53.1598 45.7553 52.799 45.5629C52.5351 45.4222 52.3897 45.5586 51.8399 46.4634ZM136.509 45.6144C135.831 45.8184 135.026 46.6424 135.269 46.8839C135.342 46.9561 136.811 47.0153 138.533 47.0153C142.196 47.0153 142.058 46.9643 143.648 48.895C144.59 50.0393 145.489 50.6783 145.766 50.4017C145.938 50.2308 145.877 49.3264 145.668 48.9327C144.964 47.6102 143.27 46.044 142.082 45.6176C141.315 45.3426 137.42 45.3402 136.509 45.6144ZM76.2406 46.9086C75.9751 47.2745 75.3439 48.0592 74.8375 48.6526C73.4966 50.2246 73.4422 50.4007 74.0621 51.164C74.3436 51.5105 74.6529 51.8203 74.7496 51.8524C74.8463 51.8844 75.2288 51.3255 75.5997 50.6102C75.9734 49.8896 76.6671 48.9154 77.1555 48.4253L78.0369 47.5409L77.5139 46.8923C77.226 46.5355 76.9305 46.2437 76.8568 46.2437C76.7834 46.2437 76.5059 46.5429 76.2406 46.9086ZM92.8701 46.6295C92.2705 46.9307 92.0837 47.1286 92.0164 47.5332C91.9691 47.818 91.4932 48.5895 90.959 49.2477C89.6989 50.7998 88.2083 52.9644 88.3217 53.0774C88.3704 53.1261 89.0229 52.862 89.7717 52.4908C91.1073 51.8285 91.1331 51.8037 91.1445 51.1657C91.1524 50.7251 91.3258 50.2829 91.6823 49.7941C91.9717 49.3974 92.6277 48.5026 93.14 47.8058C94.3234 46.1966 94.2621 45.93 92.8701 46.6295ZM2.45573 48.1105C1.13148 48.7099 -0.0888452 50.7486 0.00509231 52.2045C0.0520611 52.9335 0.102643 53.0213 0.502307 53.0676C1.06421 53.1326 1.23729 52.9126 1.59102 51.6833C1.90913 50.5775 2.51267 49.8106 3.41231 49.3686C4.0592 49.0507 4.28132 48.4678 3.92053 48.0345C3.64939 47.7088 3.3034 47.7268 2.45573 48.1105ZM54.6115 48.8597C54.0808 49.7624 52.9618 52.1601 52.9618 52.395C52.9618 52.6024 53.6441 53.1017 53.9276 53.1017C54.0383 53.1017 54.1811 52.8895 54.2449 52.6302C54.3087 52.371 54.7091 51.3987 55.1347 50.4698C55.8723 48.8601 55.8947 48.7656 55.6128 48.4553C55.1958 47.9961 55.0957 48.0364 54.6115 48.8597ZM125.964 49.0157C125.315 50.6311 124.099 52.6853 122.325 55.1591C121.695 56.0371 119.014 58.7012 117.757 59.6977C114.203 62.5146 110.461 64.2204 104.995 65.5158C103.96 65.7612 102.842 66.0358 102.511 66.1262C100.105 66.7832 94.5525 67.8798 92.8209 68.0401C90.4842 68.2563 81.5969 68.1429 78.1666 67.8532C71.9279 67.3262 65.0166 66.2136 59.4135 64.8343C56.647 64.1533 49.258 61.8362 46.5014 60.7852C45.0879 60.2462 43.3712 59.1916 41.5456 57.7404C40.7077 57.0745 39.5707 56.2517 39.0186 55.9123C38.2292 55.4267 37.8299 55.011 37.1479 53.965C36.671 53.2336 36.2285 52.4893 36.1645 52.3112C35.9539 51.7239 34.4735 49.3298 34.3212 49.3298C34.239 49.3298 34.2116 49.4332 34.2603 49.5596C34.309 49.6858 34.5528 50.7979 34.8024 52.031C35.9433 57.6693 38.1599 63.5418 41.3825 69.4633C42.0019 70.6013 43.6165 73.1913 44.9705 75.2186C48.0079 79.7662 49.5097 81.3327 52.6805 83.2605C53.9333 84.0224 56.3826 85.1996 57.349 85.5046C57.7275 85.6241 58.1154 85.783 58.2111 85.8577C58.4791 86.0674 62.1795 87.1611 65.5212 88.0182C68.9279 88.8919 69.8821 88.9956 77.3618 89.3051C85.1197 89.6259 93.8019 89.104 97.7502 88.0794C99.699 87.5736 102.415 86.632 104.06 85.8915C104.485 85.7 105.415 85.2986 106.124 84.9998C108.046 84.1906 111.04 82.5872 112.404 81.637C114.086 80.4651 116.608 77.9946 117.55 76.5957C118.382 75.3592 119.242 73.6607 119.105 73.5239C119.06 73.4796 118.812 73.641 118.553 73.8825C117.039 75.2927 113.542 77.1773 109.221 78.9117C107.754 79.5004 105.664 80.3475 104.576 80.7942C100.938 82.2873 99.2424 82.4955 99.2424 81.4488C99.2424 80.9552 99.946 80.6025 102.951 79.5902C105.571 78.7076 111.219 76.4332 113.178 75.4719C115.443 74.3604 117.511 72.9581 118.924 71.5752C119.929 70.5907 120.191 70.4189 120.563 70.4976C120.985 70.5869 121.034 70.5165 121.581 69.0201C121.897 68.156 122.199 67.1778 122.253 66.8466L122.351 66.2443L121.679 66.7355C121.309 67.0057 120.813 67.3954 120.576 67.6017C119.999 68.1047 117.372 69.8432 115.673 70.8463C114.343 71.6314 105.949 75.8235 103.037 77.1569C101.272 77.9651 100.533 77.9749 100.533 77.1903C100.533 76.7372 100.645 76.6211 101.479 76.2142C101.999 75.9605 103.935 75.0182 105.78 74.1207C113.99 70.1271 118.686 67.3862 121.867 64.7325C122.718 64.0218 123.537 63.2937 123.686 63.1145C123.835 62.9352 124.162 62.0556 124.413 61.1598C124.95 59.2488 125.003 58.9718 124.846 58.8994C124.782 58.8696 123.621 59.9259 122.266 61.2467C119.525 63.9186 118.671 64.6109 115.673 66.593C113.275 68.1784 110.92 69.4969 107.07 71.4094C103.873 72.998 103.673 73.0711 103.206 72.8218C102.31 72.3441 103.114 71.486 105.371 70.5113C107.434 69.6203 113.112 66.7017 114.468 65.8352C115.812 64.9768 116.666 64.2723 120.109 61.179C124.68 57.0732 126.17 54.4882 126.517 50.0623C126.658 48.2662 126.435 47.8432 125.964 49.0157ZM77.804 49.9779C77.4153 50.6116 76.837 51.5437 76.5189 52.0495L75.9405 52.969L76.4209 53.3807C76.685 53.6071 76.9749 53.747 77.065 53.6915C77.1552 53.6359 77.4974 53.0592 77.8256 52.4099C78.3314 51.4088 78.8022 50.8729 79.1753 50.8729C79.4048 50.8729 79.8011 51.4556 79.8011 51.7932C79.8011 52.0031 79.4527 52.7034 79.0269 53.3494C78.3007 54.4514 78.0569 55.1591 78.4039 55.1591C78.487 55.1591 78.646 54.9403 78.7571 54.673C79.0544 53.9576 79.9299 53.0683 80.2721 53.1339C80.4351 53.1651 80.6381 53.3891 80.7236 53.6313C80.8476 53.9828 80.7527 54.3511 80.2541 55.4514C79.6171 56.8571 79.4886 57.6635 79.8071 58.2565C79.9587 58.5387 80.1758 58.5881 81.2661 58.5881H82.5468L82.9191 57.8594C83.3512 57.0137 84.7192 54.9647 85.6877 53.7131C88.2119 50.4506 89.1914 49.0291 89.0274 48.8659C88.6921 48.5317 84.8756 52.5987 83.9302 54.2974C83.599 54.8925 83.167 55.5421 82.9702 55.7408C82.7735 55.9395 82.3943 56.5055 82.1278 56.9984C81.5012 58.1569 81.079 58.5469 80.7057 58.3122C80.0548 57.9031 80.0559 57.63 80.7129 56.357L81.3478 55.1272L80.9835 53.643C80.5854 52.0202 79.7092 50.0187 79.0752 49.2834C78.8534 49.026 78.6356 48.8177 78.5912 48.8206C78.547 48.8234 78.1928 49.3442 77.804 49.9779ZM56.1618 51.937L55.3525 53.6869L55.7486 53.9905C55.9664 54.1575 56.2303 54.296 56.3349 54.2981C56.4397 54.3001 56.6529 53.7868 56.8087 53.1574C57.1012 51.9761 57.4176 51.4702 57.9738 51.2943C58.1505 51.2384 58.2952 51.127 58.2952 51.0467C58.2952 50.9133 57.2463 50.1871 57.0536 50.1871C57.0081 50.1871 56.6068 50.9745 56.1618 51.937ZM42.4177 50.8075C42.3501 50.8749 42.2949 51.151 42.2949 51.4212C42.2949 52.0068 42.6608 52.1963 43.2633 51.9226C43.5961 51.7716 43.6816 51.6206 43.6396 51.2573C43.5952 50.8737 43.4889 50.7777 43.0629 50.7362C42.7756 50.7081 42.4853 50.7403 42.4177 50.8075ZM64.2596 50.8158C63.9994 51.0748 64.1667 51.7365 64.5567 51.9912C65.169 52.3909 65.8653 52.1692 65.8653 51.5744C65.8653 51.3205 65.7724 51.0203 65.6588 50.9072C65.4393 50.6884 64.4519 50.6239 64.2596 50.8158ZM58.6393 51.9727C58.6393 52.4907 58.4833 53.077 58.1942 53.6454C57.8482 54.326 57.7985 54.5508 57.9711 54.6571C58.3012 54.8604 58.4422 54.7027 58.5617 53.9958C58.7704 52.7612 58.7899 52.7357 59.4712 52.7922C60.0978 52.8442 60.1017 52.8495 60.0919 53.6161C60.0866 54.0404 60.0479 54.613 60.0059 54.8887C59.9302 55.3861 59.9424 55.3938 61.6501 55.9349C63.6906 56.5814 64.4889 56.7505 64.4889 56.5362C64.4889 56.1019 61.5345 53.3314 59.2845 51.6555L58.6393 51.1751V51.9727ZM136.362 52.0874C135.289 52.3394 132.354 53.9896 131.182 55C131.101 55.0698 131.531 55.7321 132.137 56.4717C132.744 57.2113 133.52 58.2049 133.863 58.6795C134.511 59.5766 135.716 62.1276 135.716 62.602C135.716 63.0811 135.988 62.9045 137.471 61.4599C141.295 57.7365 142.244 54.6545 140.134 52.8084C139.172 51.9669 137.906 51.7248 136.362 52.0874ZM69.5127 53.9932C69.0031 54.5011 69.3983 55.3924 70.2583 55.6753C71.0269 55.928 71.3708 55.801 71.3708 55.2642C71.3708 54.6122 71.1984 54.3104 70.6702 54.0383C70.079 53.7337 69.7847 53.7222 69.5127 53.9932ZM147.594 56.005C147.496 56.1874 147.415 56.8724 147.415 57.5272C147.415 58.8773 147.144 59.6603 146.293 60.7723C145.975 61.1869 145.589 61.9042 145.435 62.3665C144.727 64.4887 141.12 67.081 137.714 67.9149C135.86 68.3687 134.918 69.0178 134.818 69.9101C134.777 70.2713 134.849 70.3401 135.316 70.3851C135.618 70.4143 136.158 70.2881 136.521 70.1036C136.883 69.9197 137.853 69.5643 138.678 69.3136C139.503 69.0629 140.733 68.5808 141.413 68.2422C143.786 67.0592 147.241 63.1051 148.426 60.2168C148.697 59.5544 148.876 58.7199 148.927 57.8728C149.002 56.6361 148.98 56.5312 148.563 56.1154C148.032 55.5869 147.831 55.5637 147.594 56.005ZM5.44177 56.1084C5.19437 56.3549 6.26278 60.0041 7.02202 61.506C7.84234 63.1284 10.0002 66.1207 12.5213 69.1322C13.7879 70.6451 14.3087 71.2283 16.4158 73.4937C16.9911 74.1124 17.9946 75.1972 18.6458 75.9044C21.5424 79.0504 26.747 84.057 31.0258 87.8138C33.5807 90.0569 36.0969 92.2922 36.6173 92.7812C37.8617 93.9503 41.3287 96.8363 45.4867 100.164C46.3115 100.825 47.612 101.888 48.3769 102.527C49.1416 103.167 50.4578 104.17 51.3013 104.756C52.1449 105.343 53.5288 106.362 54.3765 107.022C55.2244 107.683 56.2929 108.511 56.7511 108.863C58.096 109.897 60.6782 112.416 60.8092 112.821C60.9449 113.241 60.9649 113.618 61.1863 119.967C61.3482 124.609 61.4402 125.212 62.1377 126.209C62.4577 126.666 62.4973 126.681 62.6155 126.381C62.6864 126.201 62.7497 125.071 62.7564 123.871C62.7696 121.458 63.0036 120.519 63.7668 119.819C64.1923 119.429 64.2164 119.426 64.4502 119.734C64.7003 120.063 64.6637 121.109 64.3275 123.224C64.2451 123.743 64.2183 125.17 64.268 126.396C64.353 128.494 64.3883 128.673 64.8686 129.435C65.8252 130.952 67.2327 131.858 67.0089 130.811C66.6188 128.989 66.5239 127.657 66.591 124.948C66.6684 121.817 66.8408 120.996 67.4202 120.996C68.1241 120.996 68.1872 121.374 68.2027 125.694C68.2204 130.591 68.4154 131.643 69.5725 133.087C70.0878 133.729 71.7646 134.719 71.9781 134.506C72.0289 134.456 71.8602 133.42 71.6034 132.206C71.1865 130.233 71.1352 129.62 71.1246 126.482C71.1136 123.232 71.1399 122.916 71.4737 122.281C71.7684 121.721 71.9263 121.596 72.3339 121.596H72.8332L72.7934 122.624C72.6553 126.196 72.6978 129.638 72.8948 130.854C73.152 132.441 73.701 134.695 73.9775 135.3C74.1528 135.683 75.7654 136.562 75.9522 136.375C75.9933 136.334 75.913 135.422 75.7738 134.349C75.6344 133.275 75.4665 130.849 75.4003 128.957C75.2761 125.395 75.3733 124.542 75.9586 124.058C76.1865 123.869 76.2934 123.912 76.6609 124.338L77.0944 124.84L76.9766 128.104C76.7529 134.303 77.4019 137.115 79.1559 137.547C79.7787 137.7 79.7722 137.448 79.1048 135.569C78.0572 132.617 77.7945 130.565 78.3953 130.023C78.5684 129.867 78.7985 129.739 78.9069 129.739C79.2367 129.739 79.6361 130.717 79.8867 132.138C80.1954 133.887 81.1551 137.359 81.4357 137.741C81.6137 137.984 81.936 138.04 83.1792 138.047C85.1225 138.057 86.2738 137.561 87.2202 136.305C88.3373 134.823 88.4899 134.156 88.486 130.768C88.4815 126.744 88.0072 124.832 86.2972 121.943C84.5671 119.02 81.919 116.347 79.0045 114.582C76.9933 113.363 75.7652 113.103 71.1987 112.927C64.6455 112.674 65.2285 112.807 63.4602 111.164C62.6318 110.395 61.4992 109.534 60.9434 109.251C59.1364 108.332 58.0065 107.32 55.2462 104.147C52.4639 100.949 52.2586 100.734 48.3024 96.8962C45.6813 94.3532 44.1344 92.7306 42.9153 91.2459C42.4521 90.682 39.9688 88.1373 37.3967 85.5913C34.8246 83.0453 31.5421 79.6391 30.1024 78.022C28.5487 76.277 26.5609 74.28 25.2122 73.1091C22.9432 71.1394 21.8741 70.0801 19.3812 67.3318C17.533 65.2946 11.5176 59.6615 9.86406 58.4199C8.60175 57.4719 6.07645 56.0163 5.69433 56.0163C5.60625 56.0163 5.4927 56.0578 5.44177 56.1084ZM32.4015 57.688C32.118 57.8354 31.4811 58.2843 30.9859 58.6853C30.4907 59.0865 30.0236 59.4409 29.9478 59.4729C29.7783 59.5443 27.9403 62.1002 27.1319 63.3887C26.2644 64.7709 25.6671 66.221 25.371 67.6625L25.1095 68.9361L25.804 69.7628C26.186 70.2175 26.5899 70.5895 26.7014 70.5895C26.8153 70.5895 27.0008 70.0825 27.1245 69.4329C27.4004 67.9826 27.8049 67.2629 28.3821 67.1946C28.9926 67.1226 29.2749 67.5067 29.0483 68.1006C28.9502 68.3578 28.7515 69.3023 28.6067 70.1995C28.3582 71.7372 28.3608 71.8519 28.6514 72.196C29.2742 72.9337 31.5308 75.2186 31.6366 75.2186C31.6964 75.2186 31.7988 73.1343 31.864 70.5869C31.9292 68.0396 32.0578 65.7582 32.1496 65.5174C32.3633 64.9574 32.987 65.0112 33.3104 65.6175C33.5417 66.0507 33.5367 66.3007 33.2086 70.761C33.0663 72.6932 33.2361 75.3452 33.5879 76.6878C33.9329 78.004 34.5032 78.7994 35.9716 80.0122C37.2685 81.0832 37.6026 81.2569 37.3876 80.7479C37.3177 80.5829 37.0684 79.8306 36.8334 79.0762C36.4334 77.7917 36.4009 77.4015 36.3218 72.9329C36.2385 68.229 36.2424 68.1573 36.5993 67.9082C36.9807 67.642 37.0812 67.0055 36.7878 66.7132C36.4587 66.3852 33.9126 60.1664 33.4296 58.5114C33.2779 57.9913 33.1005 57.533 33.0355 57.4929C32.9703 57.4527 32.685 57.5405 32.4015 57.688ZM128.229 58.1166C128.072 59.0724 126.706 63.7892 126.259 64.9181C125.751 66.2028 125.788 66.4751 126.469 66.4734C128.609 66.4684 132.28 65.5899 132.869 64.9416C133.109 64.6766 133.105 64.5338 132.82 63.4538C132.647 62.7966 132.243 61.7688 131.922 61.1694C131.319 60.0408 128.969 57.3879 128.574 57.3879C128.442 57.3879 128.299 57.6916 128.229 58.1166ZM39.9456 59.3668C39.6168 60.2208 41.0364 64.7102 42.6428 67.8964C44.0463 70.6804 45.1312 72.2569 47.6232 75.1329C48.7669 76.4531 49.8852 77.7453 50.1082 78.0047C50.6539 78.6396 51.4134 78.6613 51.4134 78.0421C51.4134 77.2606 50.9691 76.5229 49.7626 75.2999C46.5408 72.0352 44.8331 69.3647 43.0777 64.846C41.425 60.5915 40.7243 59.1024 40.375 59.1024C40.1949 59.1024 40.0017 59.2214 39.9456 59.3668ZM156.821 60.074C156.758 60.1368 156.706 60.3243 156.706 60.4908C156.706 61.0893 155.308 65.0049 154.698 66.1135C153.238 68.7703 150.773 71.6446 149.348 72.3529C148.316 72.8653 148.105 73.2031 148.525 73.6655C149.218 74.4293 150.335 73.8909 152.381 71.8077C154.896 69.2454 156.295 66.968 157.475 63.5099C158.117 61.6289 158.154 61.0295 157.675 60.2654C157.483 59.9593 157.036 59.8592 156.821 60.074ZM8.74576 60.8702C8.74576 61.4166 9.27428 61.9318 10.4322 62.5143C11.1236 62.8621 11.5279 63.2038 11.7996 63.6698C12.0117 64.0338 12.58 64.756 13.0624 65.2746C15.4558 67.8475 18.7374 71.6628 19.4773 72.7326C19.9338 73.3927 20.6674 74.1983 21.1073 74.5231C22.4266 75.4964 22.8357 75.9147 24.1496 77.6349C24.8407 78.5396 25.9349 79.7332 26.5815 80.2874C28.5191 81.9485 29.56 82.9351 31.1822 84.6483C35.8904 89.621 37.906 91.5679 39.7692 92.943C41.079 93.9095 42.6219 93.6307 41.8336 92.57C41.644 92.315 41.2251 91.9344 40.9027 91.7242C39.9308 91.0909 37.5051 89.2591 36.6815 88.5368C36.2567 88.1641 35.0846 86.8859 34.0771 85.6964C30.9353 81.988 29.8882 80.8813 28.624 79.9331C27.1842 78.8532 26.0525 77.6854 24.6957 75.8799C24.1543 75.1593 23.2041 74.0968 22.5842 73.5191C21.3281 72.3481 16.2324 66.59 14.2261 64.0744C12.1368 61.4547 10.8334 60.474 9.44082 60.474C8.8292 60.474 8.74576 60.5217 8.74576 60.8702ZM37.758 69.9466C37.5997 70.5355 37.6326 73.9336 37.8115 75.4851C37.8993 76.2446 38.1391 77.5562 38.3445 78.3997C38.7184 79.9349 39.842 82.6089 40.2079 82.8344C40.3148 82.9002 40.4079 83.2389 40.4146 83.5869C40.4254 84.1402 40.5662 84.3461 41.5329 85.2248C42.6865 86.2728 42.8585 86.2672 42.316 85.1987C40.9851 82.5774 39.2865 74.569 39.8654 73.6451C39.9805 73.4615 40.0233 73.1426 39.9609 72.9361C39.7945 72.388 38.1456 69.5608 37.9923 69.5608C37.9206 69.5608 37.8151 69.7343 37.758 69.9466ZM130.082 71.0423C129.659 71.2196 129.855 71.7519 130.414 71.9464C131.028 72.1595 131.28 71.9723 131.201 71.361C131.157 71.0178 130.551 70.8453 130.082 71.0423ZM41.6081 76.5373C41.6096 77.1126 42.3396 80.6728 42.6966 81.846C43.6857 85.0977 45.189 88.0353 46.8925 90.0454C47.2104 90.4205 47.4589 90.8834 47.4444 91.0741C47.43 91.2646 47.4267 91.524 47.4372 91.6505C47.4552 91.8681 48.5249 92.9575 52.5982 96.9066C53.5708 97.8496 55.1143 99.5083 56.0283 100.593C58.655 103.709 60.9215 105.872 62.5314 106.798C63.2999 107.24 64.3838 108.002 64.94 108.491C66.3592 109.739 66.8386 109.911 68.525 109.774C70.4321 109.618 74.9982 110.087 76.9623 110.64C80.6702 111.684 83.7532 113.941 86.701 117.772C87.2596 118.497 87.8883 119.211 88.0982 119.358C88.5392 119.665 89.6709 119.701 91.0037 119.449C91.5133 119.352 92.9157 119.123 94.1198 118.939C98.5733 118.258 105.563 116.162 110.683 113.971C112.794 113.068 116.677 111.11 117.975 110.293L118.698 109.838L118.334 109.376L117.969 108.914L118.631 108.311C118.995 107.98 120.492 106.694 121.956 105.455C126.456 101.647 129.18 98.5981 131.2 95.11C132.276 93.2535 133.231 92.3635 134.148 92.3635C134.584 92.3635 134.786 92.9712 134.484 93.3756C129.944 99.449 127.964 101.918 125.893 104.09C124.486 105.565 122.047 107.7 121.266 108.138C121.125 108.218 121.061 108.334 121.124 108.397C121.302 108.575 124.134 106.973 125.68 105.82C126.043 105.549 127.23 104.432 128.318 103.337C131.347 100.288 132.659 98.174 136.032 90.9062C137.716 87.277 138.014 83.508 137.117 77.1903L136.995 76.3331L136.254 76.3809C135.846 76.4071 134.358 76.6571 132.947 76.9364C127.575 77.9999 125.735 77.9673 123.339 76.7667C122.58 76.3867 121.862 76.0761 121.741 76.0762C121.621 76.0764 121.291 76.4428 121.009 76.8906C118.926 80.1896 115.417 83.411 111.429 85.6856L109.565 86.7488L109.563 87.456C109.562 87.8448 109.449 88.5874 109.313 89.106C109.103 89.9051 108.892 90.2134 107.93 91.1271C104.457 94.4269 98.351 96.7501 91.1556 97.5091C88.4767 97.7916 77.0361 97.6253 74.3816 97.2653C69.1244 96.5522 67.4153 96.1354 65.0632 94.9934C63.5636 94.2651 62.2418 93.1419 60.3546 90.992C59.5684 90.0961 58.7639 89.2787 58.5671 89.1753C58.0614 88.9097 56.5825 88.5267 56.4753 88.6337C56.4259 88.6827 56.583 89.0127 56.8244 89.367C57.3345 90.1162 57.3478 90.194 57.0116 90.4721C56.6322 90.7859 55.6245 90.3917 55.1272 89.7351C54.9009 89.4362 54.6172 88.8446 54.4968 88.4202C54.3763 87.9959 54.2175 87.5679 54.1439 87.4692C53.9727 87.2398 52.112 86.4667 51.9999 86.5785C51.9016 86.6764 52.2775 87.3305 53.5682 89.307C54.2198 90.3046 54.6958 90.8382 55.1483 91.078C55.5045 91.2668 55.8231 91.5619 55.8563 91.7338C55.9358 92.1448 55.4157 92.5227 54.761 92.5295C54.1119 92.5364 53.1753 91.615 52.0652 89.8775C49.6549 86.1048 49.5208 85.8619 49.5208 85.2647C49.5208 84.9331 49.4241 84.5866 49.3058 84.4947C49.1876 84.4027 48.5701 83.8597 47.9337 83.2877C46.1726 81.7053 46.0766 81.8361 47.1177 84.3984C48.48 87.7509 49.5972 89.5208 51.4101 91.1989C52.7274 92.4182 52.9408 92.9619 52.1769 93.1531C50.0081 93.6955 46.0512 87.5534 44.4572 81.17C43.95 79.1383 43.8366 78.8772 42.9132 77.6119C41.7428 76.0083 41.6062 75.8959 41.6081 76.5373ZM54.5169 80.6651C54.1831 80.9344 54.1511 81.0426 54.3151 81.3478C54.5456 81.7773 55.0599 81.972 55.5519 81.8163C55.8384 81.7258 55.8957 81.5852 55.853 81.0762C55.8086 80.545 55.7319 80.44 55.357 80.3964C55.1122 80.3681 54.7359 80.4885 54.5169 80.6651ZM21.3668 84.3727C21.5115 85.599 22.5174 88.4437 23.4898 90.3763C25.0448 93.4665 31.5022 102.753 33.0412 104.112C34.0466 105 35.3137 105.945 37.1335 107.161C38.2217 107.889 39.5378 108.793 40.0583 109.169C41.3584 110.11 43.1353 111.075 44.8756 111.787C46.2664 112.356 47.3434 112.696 53.736 114.581C55.25 115.027 56.7379 115.496 57.0424 115.622C58.0817 116.054 58.203 115.86 57.521 114.86C57.2844 114.513 57.0909 114.021 57.0909 113.766C57.0909 113.379 56.6733 112.953 54.5639 111.191C53.1739 110.03 51.827 108.926 51.5706 108.737C51.3143 108.548 48.6384 106.416 45.6243 103.997C38.6107 98.3701 38.0347 97.9051 37.2868 97.266C36.9454 96.9742 36.2879 96.4269 35.8257 96.0497C34.9249 95.3145 32.6508 93.3874 32.0158 92.8212C31.8033 92.6315 31.5977 92.5089 31.5592 92.5485C31.5204 92.5883 31.8666 93.2379 32.328 93.9923C32.7896 94.7467 33.2953 95.5954 33.4518 95.8783C33.9231 96.7297 35.1136 98.1138 35.7996 98.6076C36.5769 99.1672 36.8155 99.8531 36.3507 100.192C35.7223 100.65 34.8848 100.132 33.5041 98.434C31.9134 96.477 28.4893 90.839 28.2748 89.8234C28.1987 89.4633 27.8684 88.9918 27.3738 88.5375C25.9981 87.2739 25.9534 87.5349 26.9951 90.742C28.0582 94.0143 29.5034 96.7568 31.1991 98.7188C32.1784 99.8521 32.4013 100.356 32.1581 100.888C31.8876 101.48 31.5961 101.371 30.5661 100.293C27.6759 97.2691 25.8333 93.3911 24.657 87.8562L24.2513 85.9476L22.9073 84.7058C22.168 84.0229 21.4946 83.4605 21.4105 83.4561C21.3265 83.4518 21.3069 83.8641 21.3668 84.3727ZM12.8809 85.4943C12.4432 86.3093 12.676 88.1248 13.6441 91.4477C15.7028 98.5126 16.3069 99.8958 19.4722 104.794C21.4363 107.833 21.427 107.822 22.0706 107.76C22.5387 107.714 22.5897 107.654 22.5415 107.208C22.4673 106.522 22.0152 105.719 20.7952 104.108C19.2678 102.091 17.9719 99.4305 16.6284 95.5547C14.823 90.3458 14.2079 88.155 14.2163 86.9629C14.2244 85.8243 13.922 85.1627 13.3931 85.1627C13.2093 85.1627 12.979 85.3119 12.8809 85.4943ZM124.119 86.0384C123.685 86.5202 123.329 86.9747 123.329 87.0486C123.329 87.4947 121.486 90.3192 120.197 91.8492C119.362 92.8393 118.239 94.3052 117.7 95.1067C116.28 97.2174 115.096 98.354 111.028 101.509C105.588 105.728 100.243 108.833 96.3334 110.045C95.4446 110.32 95.105 110.731 95.3947 111.18C95.835 111.862 97.8309 111.304 101.565 109.458C106.127 107.201 114.092 101.371 116.993 98.1642C121.16 93.5572 125.738 87.0601 125.738 85.7537C125.738 85.4115 125.449 85.1627 125.051 85.1627C124.973 85.1627 124.554 85.5568 124.119 86.0384ZM129.463 85.5587C129.168 85.7823 127.424 88.6256 127.046 89.501C126.915 89.8024 126.444 90.4733 125.997 90.992C119.897 98.0804 116.049 101.69 109.221 106.73C108.511 107.254 107.544 107.97 107.07 108.321C105.193 109.716 102.489 111.023 100.361 111.566C98.8224 111.958 97.4008 112.679 97.2532 113.142C97.196 113.322 97.2502 113.589 97.3734 113.737C98.074 114.578 103.386 112.549 107.34 109.93C109.705 108.363 114.064 105.025 117.049 102.494C119.504 100.413 124.823 95.0944 126 93.544C127.946 90.9788 128.441 90.2866 128.948 89.4244C129.529 88.4369 130.383 86.3822 130.383 85.9716C130.383 85.5994 129.771 85.3251 129.463 85.5587ZM131.171 88.6357C130.785 89.0371 130.089 89.9437 129.624 90.6503C125.304 97.2219 119.252 103.441 111.286 109.494C107.48 112.386 103.8 114.65 102.902 114.653C102.36 114.655 101.326 115 101.055 115.271C100.909 115.415 100.791 115.711 100.791 115.929C100.791 116.793 102.588 116.664 104.619 115.654C107.082 114.429 108.005 113.802 114.022 109.257C115.241 108.337 118.75 105.328 120.32 103.857C124.58 99.8655 128.629 95.2106 131.384 91.1391C132.175 89.9691 132.706 88.4732 132.441 88.1558C132.122 87.7728 131.931 87.8452 131.171 88.6357ZM105.35 88.5426C103.342 89.6322 99.648 90.85 96.8932 91.3307C95.0795 91.6471 88.1586 92.1933 83.9302 92.3536C76.97 92.6175 70.4388 92.1227 64.704 90.8968C63.5106 90.6417 65.527 92.0203 67.3311 92.6929C70.9439 94.04 76.9084 94.8298 84.1022 94.9139C93.8093 95.0272 101.398 92.995 105.393 89.2125C106.397 88.2625 106.379 87.9844 105.35 88.5426ZM116.468 89.6118C115.003 91.6165 112.461 93.9501 107.759 97.6078C105.715 99.1977 103.141 100.873 102.362 101.122C101.11 101.521 100.511 102.531 101.395 102.752C102.383 102.999 103.302 102.667 104.908 101.484C105.766 100.853 107.419 99.6608 108.582 98.8354C111.756 96.5838 113.433 95.218 115.253 93.4036C117.835 90.8301 118.72 89.2411 117.835 88.7691C117.316 88.4927 117.26 88.5277 116.468 89.6118ZM111.458 90.5952C110.599 91.8578 107.92 94.1943 105.436 95.8483C104.632 96.3839 103.684 97.0194 103.329 97.2608C102.554 97.7884 102.31 98.4795 102.778 98.8203C103.215 99.1385 103.554 99.0026 105.436 97.7553C109.903 94.7947 112.284 92.5408 113.106 90.4936C113.356 89.8709 113.364 89.7344 113.161 89.606C112.595 89.249 112.229 89.4618 111.458 90.5952ZM9.04684 91.0057C8.88116 91.1019 8.74576 91.3661 8.74576 91.5929C8.74576 91.9634 9.93821 95.2595 10.5443 96.5641C10.6756 96.8469 10.9493 97.7287 11.1523 98.5236C11.3555 99.3186 11.6413 100.206 11.7877 100.495C12.1743 101.26 12.8878 101.965 13.2751 101.965C13.5798 101.965 13.6023 101.873 13.519 100.979C13.466 100.409 13.1237 99.2359 12.7083 98.2007C12.313 97.215 11.7179 95.5993 11.3858 94.6106C10.6827 92.5161 9.86389 90.8183 9.56057 90.8257C9.44358 90.8286 9.21252 90.9095 9.04684 91.0057ZM142.296 92.5705C142.193 92.6934 142.053 93.0252 141.983 93.3075C141.759 94.2176 140.406 97.5916 139.741 98.8968C138.438 101.454 135.927 104.834 133.405 107.425C130.902 109.997 128.794 111.647 125.785 113.391C120.99 116.171 118.416 117.433 116.933 117.732C115.919 117.936 115.707 118.082 115.513 118.714C115.413 119.041 115.49 119.118 116.101 119.301C116.694 119.478 116.95 119.465 117.724 119.222C118.229 119.063 118.926 118.742 119.273 118.507C119.62 118.273 119.952 118.081 120.011 118.081C120.18 118.081 125.516 115.192 126.586 114.522C130.467 112.09 132.143 110.818 134.658 108.398C138.121 105.066 140.22 101.939 142.274 97.0505C143.233 94.7691 143.476 93.8442 143.316 93.0771C143.177 92.4042 142.652 92.1434 142.296 92.5705ZM44.9738 95.2046C44.8252 95.3529 44.7035 95.5403 44.7035 95.6211C44.7035 95.8231 45.2057 96.3069 45.4153 96.3069C45.7816 96.3069 46.2519 95.9372 46.2519 95.6494C46.2519 94.9802 45.4717 94.7086 44.9738 95.2046ZM145.284 98.8867C145.033 99.184 144.356 100.365 143.78 101.51C140.66 107.71 136.098 112.522 131.132 114.852C129.533 115.602 128.662 116.44 128.662 117.23C128.662 117.674 128.724 117.738 129.153 117.738C129.423 117.738 129.907 117.549 130.228 117.318C131.659 116.289 132.633 115.665 133.996 114.906C137.711 112.834 138.463 112.119 142.017 107.28C144.696 103.632 145.002 103.128 145.45 101.638C145.585 101.191 145.99 100.522 146.388 100.091C147.305 99.0967 147.296 98.4759 146.363 98.3982C145.843 98.3548 145.666 98.4354 145.284 98.8867ZM144.905 107.041C144.802 107.084 144.377 107.66 143.959 108.322C143.542 108.984 142.83 110.023 142.377 110.632C141.685 111.562 141.583 111.792 141.738 112.08C141.966 112.505 142.197 112.51 142.856 112.104C143.784 111.534 144.345 110.821 145.196 109.132C145.953 107.629 146.007 107.444 145.766 107.203C145.5 106.938 145.263 106.894 144.905 107.041ZM77.4968 114.678C77.1151 115.221 77.4851 115.961 78.8958 117.476C80.7786 119.499 82.6624 123.261 83.7415 127.154C84.3791 129.454 84.4567 129.914 84.6044 132.269C84.7061 133.89 84.7785 134.238 85.059 134.449C85.4989 134.781 85.9328 134.777 86.0624 134.44C86.4183 133.516 85.9511 129.611 85.1103 126.482C84.0854 122.668 82.6627 119.832 80.2618 116.816C78.7581 114.927 78.1761 114.309 77.8993 114.309C77.8205 114.309 77.6393 114.475 77.4968 114.678ZM67.4481 115.201C67.3346 115.314 67.2417 115.53 67.2417 115.681C67.2417 116.2 67.6365 116.366 68.8675 116.368C74.1092 116.373 77.4662 118.906 80.6816 125.281C81.7168 127.333 82.2863 129.193 82.6918 131.848C82.8929 133.165 83.1025 133.511 83.6969 133.511C84.4379 133.511 84.5246 132.934 84.0988 130.837C83.5866 128.314 83.1634 127.212 81.1829 123.244C78.7714 118.412 77.4489 116.989 74.3102 115.847C72.2038 115.081 67.9684 114.682 67.4481 115.201ZM96.4134 128.406C96.096 128.858 96.0702 130.059 96.3213 132.698C96.5113 134.695 96.3692 136.162 95.8876 137.173C95.7345 137.495 95.0353 138.39 94.334 139.163C93.4463 140.142 93.0244 140.753 92.9451 141.174C92.5897 143.062 94.8352 141.522 96.8435 138.501C98.0353 136.707 98.1506 134.751 97.4178 128.754C97.3485 128.186 97.2573 128.025 97.0049 128.025C96.8268 128.025 96.5607 128.196 96.4134 128.406ZM99.3199 133.525C99.2568 133.627 99.2613 134.791 99.3299 136.112C99.4547 138.514 99.4545 138.515 98.9743 139.461C98.4762 140.442 98.5179 140.904 99.115 141.022C99.5933 141.116 100.563 140.087 100.77 139.265C101.16 137.723 100.882 134.141 100.33 133.591C100.034 133.296 99.4839 133.261 99.3199 133.525Z" fill="#D4B7AA"/>
</svg>
